<svg width="20" height="20" viewBox="0 0 20 20" fill="none" xmlns="http://www.w3.org/2000/svg">
<path d="M4.19501 7.59741C3.40685 7.79574 2.71824 8.27505 2.25855 8.94528C1.79887 9.61551 1.59974 10.4305 1.6986 11.2372C1.79745 12.0439 2.18748 12.7868 2.7954 13.3262C3.40332 13.8656 4.18728 14.1644 5.00001 14.1666H5.83334M10 18.3332V10.8332V18.3332ZM10 18.3332L7.91668 16.6666L10 18.3332ZM10 18.3332L12.0833 16.6666L10 18.3332Z" stroke="white" stroke-width="1.66667" stroke-linecap="round" stroke-linejoin="round"/>
<path d="M13.1917 5.9483C12.9069 4.82045 12.2039 3.84309 11.2252 3.21435C10.2464 2.58561 9.06528 2.35254 7.9211 2.56239C6.77692 2.77223 5.75533 3.40929 5.06344 4.34442C4.37154 5.27955 4.0611 6.44277 4.19505 7.5983C4.19505 7.5983 4.32255 8.3333 4.58339 8.74997" stroke="white" stroke-width="1.66667" stroke-linecap="round" stroke-linejoin="round"/>
<path d="M14.1667 14.1666C14.7551 14.1662 15.3367 14.0412 15.8733 13.7998C16.4098 13.5584 16.8892 13.2061 17.2798 12.7661C17.6704 12.3262 17.9634 11.8084 18.1395 11.247C18.3156 10.6856 18.3708 10.0933 18.3015 9.50904C18.2322 8.92477 18.0399 8.36181 17.7374 7.8572C17.4348 7.3526 17.0288 6.91779 16.5461 6.58141C16.0634 6.24502 15.5149 6.01468 14.9367 5.90555C14.3585 5.79642 13.7638 5.81097 13.1917 5.94825L12.0834 6.24992" stroke="white" stroke-width="1.66667" stroke-linecap="round" stroke-linejoin="round"/>
</svg>
