<svg width="20" height="20" viewBox="0 0 20 20" fill="none" xmlns="http://www.w3.org/2000/svg">
<path d="M9.66663 11.1666C11.0473 11.1666 12.1666 10.0473 12.1666 8.66663C12.1666 7.28591 11.0473 6.16663 9.66663 6.16663C8.28591 6.16663 7.16663 7.28591 7.16663 8.66663C7.16663 10.0473 8.28591 11.1666 9.66663 11.1666Z" stroke="white" stroke-width="1.4" stroke-linecap="round" stroke-linejoin="round"/>
<path d="M9.66667 2C7.89856 2 6.20286 2.70238 4.95262 3.95262C3.70238 5.20286 3 6.89856 3 8.66667C3 10.2433 3.335 11.275 4.25 12.4167L9.66667 18.6667L15.0833 12.4167C15.9983 11.275 16.3333 10.2433 16.3333 8.66667C16.3333 6.89856 15.631 5.20286 14.3807 3.95262C13.1305 2.70238 11.4348 2 9.66667 2V2Z" stroke="white" stroke-width="1.4" stroke-linecap="round" stroke-linejoin="round"/>
</svg>
