<svg width="20" height="20" viewBox="0 0 20 20" fill="none" xmlns="http://www.w3.org/2000/svg">
<path d="M9.22828 2.19413C9.49494 1.49079 10.5041 1.49079 10.7716 2.19413L12.4966 6.97246C12.5568 7.12811 12.6628 7.26186 12.8005 7.35604C12.9383 7.45022 13.1014 7.5004 13.2683 7.49996H17.5074C18.2908 7.49996 18.6324 8.47496 18.0166 8.95246L14.9999 11.6666C14.8648 11.7705 14.7661 11.9145 14.7179 12.078C14.6696 12.2415 14.6745 12.416 14.7316 12.5766L15.8333 17.2458C16.1016 17.9958 15.2333 18.64 14.5766 18.1783L10.4791 15.5783C10.3388 15.4797 10.1715 15.4268 9.99994 15.4268C9.82843 15.4268 9.6611 15.4797 9.52078 15.5783L5.42328 18.1783C4.76744 18.64 3.89828 17.995 4.16661 17.2458L5.26828 12.5766C5.32542 12.416 5.33024 12.2415 5.28203 12.078C5.23383 11.9145 5.13507 11.7705 4.99994 11.6666L1.98328 8.95246C1.36661 8.47496 1.70994 7.49996 2.49161 7.49996H6.73078C6.89769 7.50051 7.06083 7.45038 7.19862 7.35619C7.33642 7.26199 7.44236 7.12818 7.50244 6.97246L9.22744 2.19413H9.22828Z" stroke="white" stroke-width="1.66667" stroke-linecap="round" stroke-linejoin="round"/>
</svg>
