<svg width="12" height="12" viewBox="0 0 12 12" fill="none" xmlns="http://www.w3.org/2000/svg">
<path d="M6.00005 6.5C6.82847 6.5 7.50005 5.82843 7.50005 5C7.50005 4.17157 6.82847 3.5 6.00005 3.5C5.17162 3.5 4.50005 4.17157 4.50005 5C4.50005 5.82843 5.17162 6.5 6.00005 6.5Z" stroke="#1A2B3B" stroke-width="0.8" stroke-linecap="round" stroke-linejoin="round"/>
<path d="M6.00005 1C4.93918 1 3.92176 1.42143 3.17162 2.17157C2.42147 2.92172 2.00005 3.93913 2.00005 5C2.00005 5.946 2.20105 6.565 2.75005 7.25L6.00005 11L9.25005 7.25C9.79905 6.565 10 5.946 10 5C10 3.93913 9.57862 2.92172 8.82847 2.17157C8.07833 1.42143 7.06091 1 6.00005 1V1Z" stroke="#1A2B3B" stroke-width="0.8" stroke-linecap="round" stroke-linejoin="round"/>
</svg>
