<svg width="140" height="36" viewBox="0 0 140 36" fill="none" xmlns="http://www.w3.org/2000/svg">
<path d="M15.8749 27.4656C17.2575 26.2759 18.9474 26.069 20.6885 25.8104C21.0982 25.7587 21.5079 25.7069 21.9175 25.6035C24.8877 25.138 27.1409 24.0518 28.7283 22.2932C30.111 20.7414 31.0328 18.207 30.9303 16.138C30.8791 14.9483 30.5207 13.9138 29.9062 13.138L34.3613 7.29316L33.6444 6.82764C33.3884 6.67247 33.1835 6.5173 32.9275 6.36212C31.6985 5.48281 30.4182 4.65523 28.7796 4.50006C28.165 4.44833 27.5505 4.50006 26.9872 4.65523C24.1195 5.37937 22.4808 7.86212 21.9175 8.89661L23.1978 9.72419C23.7099 8.84488 25.0413 6.77592 27.3457 6.20695C27.8066 6.1035 28.2675 6.05178 28.7283 6.1035C29.9574 6.20695 31.0328 6.93109 32.1594 7.70695L28.3699 12.7242L27.909 13.3449L28.4723 13.8621C29.0868 14.4311 29.4453 15.207 29.4965 16.2414C29.5989 18.1035 28.6771 20.1725 27.7042 21.2069C26.3215 22.7069 24.3756 23.5863 21.7127 24.0518C21.303 24.1035 20.8934 24.1552 20.5349 24.2069C19.5107 24.3621 18.4353 24.4656 17.4623 24.8276C16.5918 25.0863 15.7724 25.5518 14.9531 26.2242C13.4168 27.569 12.2902 29.5345 11.8806 31.6035C10.2419 31.6035 8.60317 31.6035 7.01569 31.6035H6.24755C6.60602 30.5173 7.1181 29.4828 7.6814 28.5518C8.60317 27.1035 9.78098 25.8621 11.1124 24.8276H8.70559C7.83503 25.6552 7.0669 26.5863 6.40118 27.6725C5.53062 29.069 4.86491 30.569 4.45523 32.2242L4.19919 33.2587H6.96448C8.75679 33.2587 10.6003 33.2587 12.4439 33.2587H13.1096L13.212 32.5863C13.468 30.569 14.441 28.7587 15.8749 27.4656Z" fill="black" fill-opacity="0.85"/>
<path d="M26.3727 18.6207C26.8336 17.0172 26.1166 15.2586 24.6828 14.3276C23.2489 13.3966 21.8151 12.3621 20.5348 11.3793L5.78662 0L5.58179 1.86207L19.6131 12.6724C20.9445 13.7069 22.3784 14.7414 23.8634 15.7241C24.6828 16.2414 25.1437 17.2759 24.8876 18.1552C24.6828 18.931 23.8634 19.5517 22.9417 19.5517L2.97012 20.431L3.63584 21.9828L22.9929 21.1552C24.5804 21.1034 25.963 20.069 26.3727 18.6207Z" fill="black" fill-opacity="0.85"/>
<path d="M1.43386 17.7931L20.9445 17.6896C21.3542 17.6896 21.6615 17.3276 21.6615 16.9138C21.6615 16.6034 21.5078 16.3448 21.2518 16.1896L2.97013 3.6724V5.58619L16.3869 14.5862L0 9.41378L0.153629 11.1207L16.0285 16.1379L0.870555 16.1896C0.819346 16.1896 1.43386 17.7931 1.43386 17.7931Z" fill="black" fill-opacity="0.85"/>
<path d="M28.8308 8.37931C28.8308 7.91379 28.4723 7.5 28.0114 7.5C27.5505 7.5 27.2433 7.86207 27.2433 8.37931C27.2433 8.84483 27.6017 9.2069 28.0114 9.2069C28.4723 9.25862 28.8308 8.84483 28.8308 8.37931Z" fill="black" fill-opacity="0.85"/>
<path d="M19.2547 1.60345C21.4054 1.60345 23.505 2.12069 25.3998 3C25.7582 2.84483 26.1167 2.74138 26.5264 2.63793C26.8848 2.53448 27.2945 2.48276 27.7042 2.43103C25.2461 0.879311 22.3784 0 19.3059 0C16.5918 0 13.9801 0.724138 11.7269 1.96552L13.1096 3.05172C14.9531 2.06897 17.0527 1.60345 19.2547 1.60345Z" fill="black" fill-opacity="0.85"/>
<path d="M34.5149 10.5517L33.4396 11.9483C34.1565 13.8103 34.5149 15.8276 34.5149 18C34.5149 27.0517 27.6529 34.3965 19.2546 34.3965C17.8208 34.3965 16.3869 34.1896 15.1067 33.7758L14.9019 35.3793C16.2845 35.7931 17.7696 36 19.2546 36C28.4723 36 36 27.931 36 18C36 15.3621 35.4367 12.8276 34.5149 10.5517Z" fill="black" fill-opacity="0.85"/>
<path d="M42.9 15V8.44H44.95C45.3967 8.44 45.7933 8.5 46.14 8.62C46.4867 8.73333 46.7567 8.92667 46.95 9.2C47.15 9.46667 47.25 9.82667 47.25 10.28C47.25 10.7867 47.1167 11.1967 46.85 11.51C46.5833 11.8167 46.2233 12.0267 45.77 12.14L47.44 15H46.5L44.92 12.23H43.73V15H42.9ZM43.73 11.55H44.83C45.3433 11.55 45.7367 11.4467 46.01 11.24C46.2833 11.0267 46.42 10.7067 46.42 10.28C46.42 9.84667 46.2833 9.54333 46.01 9.37C45.7367 9.19667 45.3433 9.11 44.83 9.11H43.73V11.55ZM50.7057 15.12C50.2724 15.12 49.879 15.02 49.5257 14.82C49.1724 14.6133 48.8924 14.32 48.6857 13.94C48.479 13.56 48.3757 13.1067 48.3757 12.58C48.3757 12.0467 48.479 11.59 48.6857 11.21C48.899 10.83 49.1724 10.5367 49.5057 10.33C49.839 10.1233 50.189 10.02 50.5557 10.02C51.1757 10.02 51.6524 10.2267 51.9857 10.64C52.3257 11.0533 52.4957 11.6067 52.4957 12.3C52.4957 12.3867 52.4924 12.4733 52.4857 12.56C52.4857 12.64 52.479 12.71 52.4657 12.77H49.1857C49.219 13.2833 49.379 13.6933 49.6657 14C49.959 14.3067 50.339 14.46 50.8057 14.46C51.039 14.46 51.2524 14.4267 51.4457 14.36C51.6457 14.2867 51.8357 14.1933 52.0157 14.08L52.3057 14.62C52.099 14.7533 51.8624 14.87 51.5957 14.97C51.3357 15.07 51.039 15.12 50.7057 15.12ZM49.1757 12.18H51.7757C51.7757 11.6867 51.669 11.3133 51.4557 11.06C51.249 10.8 50.9557 10.67 50.5757 10.67C50.2357 10.67 49.929 10.8033 49.6557 11.07C49.389 11.33 49.229 11.7 49.1757 12.18ZM55.2866 15.12C54.94 15.12 54.61 15.0567 54.2966 14.93C53.9833 14.7967 53.71 14.6367 53.4766 14.45L53.8866 13.9C54.1 14.0667 54.32 14.2067 54.5466 14.32C54.7733 14.4267 55.03 14.48 55.3166 14.48C55.6366 14.48 55.8766 14.4067 56.0366 14.26C56.1966 14.1067 56.2766 13.9267 56.2766 13.72C56.2766 13.5533 56.22 13.4133 56.1066 13.3C56 13.1867 55.86 13.0933 55.6866 13.02C55.52 12.94 55.3466 12.8667 55.1666 12.8C54.94 12.7133 54.7166 12.6167 54.4966 12.51C54.2766 12.3967 54.0966 12.2533 53.9566 12.08C53.8166 11.9 53.7466 11.6733 53.7466 11.4C53.7466 11.0067 53.8933 10.68 54.1866 10.42C54.4866 10.1533 54.9 10.02 55.4266 10.02C55.7266 10.02 56.0066 10.0733 56.2666 10.18C56.5266 10.2867 56.75 10.4167 56.9366 10.57L56.5366 11.09C56.37 10.9633 56.1966 10.86 56.0166 10.78C55.8366 10.7 55.64 10.66 55.4266 10.66C55.12 10.66 54.8933 10.73 54.7466 10.87C54.6066 11.01 54.5366 11.1733 54.5366 11.36C54.5366 11.5133 54.5866 11.64 54.6866 11.74C54.7866 11.8333 54.9166 11.9167 55.0766 11.99C55.2366 12.0567 55.4066 12.1267 55.5866 12.2C55.82 12.2867 56.05 12.3867 56.2766 12.5C56.5033 12.6067 56.69 12.7533 56.8366 12.94C56.99 13.12 57.0666 13.3633 57.0666 13.67C57.0666 13.93 56.9966 14.17 56.8566 14.39C56.7233 14.61 56.5233 14.7867 56.2566 14.92C55.9966 15.0533 55.6733 15.12 55.2866 15.12ZM58.5261 17.05V10.14H59.2061L59.2761 10.7H59.3061C59.5261 10.5133 59.7661 10.3533 60.0261 10.22C60.2928 10.0867 60.5694 10.02 60.8561 10.02C61.4828 10.02 61.9594 10.2467 62.2861 10.7C62.6128 11.1467 62.7761 11.7467 62.7761 12.5C62.7761 13.0467 62.6761 13.5167 62.4761 13.91C62.2828 14.3033 62.0261 14.6033 61.7061 14.81C61.3928 15.0167 61.0494 15.12 60.6761 15.12C60.4494 15.12 60.2228 15.07 59.9961 14.97C59.7761 14.87 59.5528 14.7333 59.3261 14.56L59.3461 15.41V17.05H58.5261ZM60.5361 14.43C60.9361 14.43 61.2661 14.26 61.5261 13.92C61.7928 13.5733 61.9261 13.1 61.9261 12.5C61.9261 11.9667 61.8261 11.5367 61.6261 11.21C61.4328 10.8767 61.1061 10.71 60.6461 10.71C60.4394 10.71 60.2294 10.7667 60.0161 10.88C59.8094 10.9933 59.5861 11.1567 59.3461 11.37V13.92C59.5661 14.1067 59.7794 14.24 59.9861 14.32C60.1928 14.3933 60.3761 14.43 60.5361 14.43ZM65.813 15.12C65.2996 15.12 64.923 14.96 64.683 14.64C64.443 14.3133 64.323 13.84 64.323 13.22V10.14H65.153V13.11C65.153 13.5633 65.223 13.8933 65.363 14.1C65.5096 14.3067 65.743 14.41 66.063 14.41C66.3163 14.41 66.5396 14.3467 66.733 14.22C66.933 14.0867 67.1463 13.8767 67.373 13.59V10.14H68.193V15H67.513L67.443 14.24H67.413C67.1863 14.5067 66.9463 14.72 66.693 14.88C66.4396 15.04 66.1463 15.12 65.813 15.12ZM72.3024 15.12C72.0758 15.12 71.8391 15.0667 71.5924 14.96C71.3524 14.8467 71.1258 14.6933 70.9124 14.5H70.8824L70.8124 15H70.1524V7.88H70.9724V9.82L70.9524 10.7C71.1724 10.5067 71.4124 10.3467 71.6724 10.22C71.9391 10.0867 72.2058 10.02 72.4724 10.02C73.1058 10.02 73.5858 10.2433 73.9124 10.69C74.2391 11.1367 74.4024 11.7367 74.4024 12.49C74.4024 13.0433 74.3024 13.5167 74.1024 13.91C73.9091 14.3033 73.6524 14.6033 73.3324 14.81C73.0191 15.0167 72.6758 15.12 72.3024 15.12ZM72.1624 14.43C72.5624 14.43 72.8924 14.26 73.1524 13.92C73.4191 13.5733 73.5524 13.1 73.5524 12.5C73.5524 11.9667 73.4524 11.5367 73.2524 11.21C73.0591 10.8767 72.7324 10.71 72.2724 10.71C72.0658 10.71 71.8558 10.7667 71.6424 10.88C71.4291 10.9933 71.2058 11.1567 70.9724 11.37V13.92C71.1858 14.1067 71.3958 14.24 71.6024 14.32C71.8158 14.3933 72.0024 14.43 72.1624 14.43ZM76.8698 15.12C76.5631 15.12 76.3398 15.0267 76.1998 14.84C76.0664 14.6467 75.9998 14.3733 75.9998 14.02V7.88H76.8198V14.08C76.8198 14.2067 76.8431 14.3 76.8898 14.36C76.9364 14.4133 76.9898 14.44 77.0498 14.44C77.0764 14.44 77.0998 14.44 77.1198 14.44C77.1464 14.4333 77.1831 14.4267 77.2298 14.42L77.3398 15.04C77.2864 15.0667 77.2231 15.0867 77.1498 15.1C77.0764 15.1133 76.9831 15.12 76.8698 15.12ZM78.8686 15V10.14H79.6886V15H78.8686ZM79.2886 9.14C79.1286 9.14 78.9953 9.09333 78.8886 9C78.7886 8.9 78.7386 8.76667 78.7386 8.6C78.7386 8.44 78.7886 8.31 78.8886 8.21C78.9953 8.11 79.1286 8.06 79.2886 8.06C79.4486 8.06 79.5786 8.11 79.6786 8.21C79.7853 8.31 79.8386 8.44 79.8386 8.6C79.8386 8.76667 79.7853 8.9 79.6786 9C79.5786 9.09333 79.4486 9.14 79.2886 9.14ZM81.6495 15V7.88H82.4595V12.7H82.4895L84.5595 10.14H85.4695L83.8395 12.09L85.6895 15H84.7895L83.3695 12.66L82.4595 13.72V15H81.6495ZM87.943 15.12C87.5364 15.12 87.1964 15 86.923 14.76C86.6564 14.5133 86.523 14.1733 86.523 13.74C86.523 13.2067 86.7597 12.8 87.233 12.52C87.713 12.2333 88.4697 12.0333 89.503 11.92C89.503 11.7133 89.473 11.5167 89.413 11.33C89.3597 11.1433 89.2597 10.9933 89.113 10.88C88.973 10.76 88.7697 10.7 88.503 10.7C88.223 10.7 87.9597 10.7533 87.713 10.86C87.4664 10.9667 87.2464 11.0867 87.053 11.22L86.733 10.65C86.9597 10.5033 87.2364 10.3633 87.563 10.23C87.8964 10.09 88.2564 10.02 88.643 10.02C89.2364 10.02 89.6664 10.2033 89.933 10.57C90.1997 10.93 90.333 11.4133 90.333 12.02V15H89.653L89.583 14.42H89.553C89.3264 14.6067 89.0764 14.77 88.803 14.91C88.5364 15.05 88.2497 15.12 87.943 15.12ZM88.183 14.46C88.4164 14.46 88.6364 14.4033 88.843 14.29C89.0497 14.1767 89.2697 14.0167 89.503 13.81V12.46C88.6964 12.56 88.1297 12.71 87.803 12.91C87.483 13.11 87.323 13.3667 87.323 13.68C87.323 13.9533 87.4064 14.1533 87.573 14.28C87.7397 14.4 87.943 14.46 88.183 14.46ZM96.0341 15.12C95.5141 15.12 95.1507 14.97 94.9441 14.67C94.7441 14.37 94.6441 13.98 94.6441 13.5V10.81H93.9241V10.19L94.6841 10.14L94.7841 8.78H95.4741V10.14H96.7841V10.81H95.4741V13.51C95.4741 13.81 95.5274 14.0433 95.6341 14.21C95.7474 14.37 95.9441 14.45 96.2241 14.45C96.3107 14.45 96.4041 14.4367 96.5041 14.41C96.6041 14.3767 96.6941 14.3467 96.7741 14.32L96.9341 14.94C96.8007 14.9867 96.6541 15.0267 96.4941 15.06C96.3407 15.1 96.1874 15.12 96.0341 15.12ZM99.1081 15.12C98.7015 15.12 98.3615 15 98.0881 14.76C97.8215 14.5133 97.6881 14.1733 97.6881 13.74C97.6881 13.2067 97.9248 12.8 98.3981 12.52C98.8781 12.2333 99.6348 12.0333 100.668 11.92C100.668 11.7133 100.638 11.5167 100.578 11.33C100.525 11.1433 100.425 10.9933 100.278 10.88C100.138 10.76 99.9348 10.7 99.6681 10.7C99.3881 10.7 99.1248 10.7533 98.8781 10.86C98.6315 10.9667 98.4115 11.0867 98.2181 11.22L97.8981 10.65C98.1248 10.5033 98.4015 10.3633 98.7281 10.23C99.0615 10.09 99.4215 10.02 99.8081 10.02C100.401 10.02 100.831 10.2033 101.098 10.57C101.365 10.93 101.498 11.4133 101.498 12.02V15H100.818L100.748 14.42H100.718C100.491 14.6067 100.241 14.77 99.9681 14.91C99.7015 15.05 99.4148 15.12 99.1081 15.12ZM99.3481 14.46C99.5815 14.46 99.8015 14.4033 100.008 14.29C100.215 14.1767 100.435 14.0167 100.668 13.81V12.46C99.8615 12.56 99.2948 12.71 98.9681 12.91C98.6481 13.11 98.4881 13.3667 98.4881 13.68C98.4881 13.9533 98.5715 14.1533 98.7381 14.28C98.9048 14.4 99.1081 14.46 99.3481 14.46ZM103.231 10.69L103.001 10.31C103.254 10.1433 103.441 9.96667 103.561 9.78C103.688 9.58667 103.751 9.34667 103.751 9.06C103.731 9.06667 103.704 9.07 103.671 9.07C103.531 9.07 103.408 9.02667 103.301 8.94C103.194 8.85333 103.141 8.73 103.141 8.57C103.141 8.39667 103.191 8.26 103.291 8.16C103.391 8.06 103.518 8.01 103.671 8.01C103.864 8.01 104.018 8.09 104.131 8.25C104.244 8.40333 104.301 8.62667 104.301 8.92C104.301 9.32 104.208 9.66667 104.021 9.96C103.841 10.2467 103.578 10.49 103.231 10.69ZM106.871 15.12C106.565 15.12 106.341 15.0267 106.201 14.84C106.068 14.6467 106.001 14.3733 106.001 14.02V7.88H106.821V14.08C106.821 14.2067 106.845 14.3 106.891 14.36C106.938 14.4133 106.991 14.44 107.051 14.44C107.078 14.44 107.101 14.44 107.121 14.44C107.148 14.4333 107.185 14.4267 107.231 14.42L107.341 15.04C107.288 15.0667 107.225 15.0867 107.151 15.1C107.078 15.1133 106.985 15.12 106.871 15.12ZM108.87 15V10.14H109.69V15H108.87ZM109.29 9.14C109.13 9.14 108.997 9.09333 108.89 9C108.79 8.9 108.74 8.76667 108.74 8.6C108.74 8.44 108.79 8.31 108.89 8.21C108.997 8.11 109.13 8.06 109.29 8.06C109.45 8.06 109.58 8.11 109.68 8.21C109.787 8.31 109.84 8.44 109.84 8.6C109.84 8.76667 109.787 8.9 109.68 9C109.58 9.09333 109.45 9.14 109.29 9.14ZM111.651 15V10.14H112.331L112.401 10.84H112.431C112.644 10.6067 112.878 10.4133 113.131 10.26C113.384 10.1 113.654 10.02 113.941 10.02C114.314 10.02 114.604 10.1033 114.811 10.27C115.024 10.43 115.181 10.6567 115.281 10.95C115.534 10.6767 115.791 10.4533 116.051 10.28C116.311 10.1067 116.588 10.02 116.881 10.02C117.381 10.02 117.751 10.1833 117.991 10.51C118.238 10.83 118.361 11.3 118.361 11.92V15H117.541V12.03C117.541 11.5767 117.468 11.2467 117.321 11.04C117.174 10.8333 116.948 10.73 116.641 10.73C116.281 10.73 115.874 10.98 115.421 11.48V15H114.601V12.03C114.601 11.5767 114.528 11.2467 114.381 11.04C114.234 10.8333 114.004 10.73 113.691 10.73C113.331 10.73 112.924 10.98 112.471 11.48V15H111.651ZM42.82 28V23.14H43.5L43.57 23.84H43.6C43.8133 23.6067 44.0467 23.4133 44.3 23.26C44.5533 23.1 44.8233 23.02 45.11 23.02C45.4833 23.02 45.7733 23.1033 45.98 23.27C46.1933 23.43 46.35 23.6567 46.45 23.95C46.7033 23.6767 46.96 23.4533 47.22 23.28C47.48 23.1067 47.7567 23.02 48.05 23.02C48.55 23.02 48.92 23.1833 49.16 23.51C49.4067 23.83 49.53 24.3 49.53 24.92V28H48.71V25.03C48.71 24.5767 48.6367 24.2467 48.49 24.04C48.3433 23.8333 48.1167 23.73 47.81 23.73C47.45 23.73 47.0433 23.98 46.59 24.48V28H45.77V25.03C45.77 24.5767 45.6967 24.2467 45.55 24.04C45.4033 23.8333 45.1733 23.73 44.86 23.73C44.5 23.73 44.0933 23.98 43.64 24.48V28H42.82ZM52.551 28.12C52.1443 28.12 51.8043 28 51.531 27.76C51.2643 27.5133 51.131 27.1733 51.131 26.74C51.131 26.2067 51.3677 25.8 51.841 25.52C52.321 25.2333 53.0777 25.0333 54.111 24.92C54.111 24.7133 54.081 24.5167 54.021 24.33C53.9677 24.1433 53.8677 23.9933 53.721 23.88C53.581 23.76 53.3777 23.7 53.111 23.7C52.831 23.7 52.5677 23.7533 52.321 23.86C52.0743 23.9667 51.8543 24.0867 51.661 24.22L51.341 23.65C51.5677 23.5033 51.8443 23.3633 52.171 23.23C52.5043 23.09 52.8643 23.02 53.251 23.02C53.8443 23.02 54.2743 23.2033 54.541 23.57C54.8077 23.93 54.941 24.4133 54.941 25.02V28H54.261L54.191 27.42H54.161C53.9343 27.6067 53.6843 27.77 53.411 27.91C53.1443 28.05 52.8577 28.12 52.551 28.12ZM52.791 27.46C53.0243 27.46 53.2443 27.4033 53.451 27.29C53.6577 27.1767 53.8777 27.0167 54.111 26.81V25.46C53.3043 25.56 52.7377 25.71 52.411 25.91C52.091 26.11 51.931 26.3667 51.931 26.68C51.931 26.9533 52.0143 27.1533 52.181 27.28C52.3477 27.4 52.551 27.46 52.791 27.46ZM56.7901 28V23.14H57.4701L57.5401 24.02H57.5701C57.7367 23.7133 57.9401 23.47 58.1801 23.29C58.4201 23.11 58.6767 23.02 58.9501 23.02C59.1434 23.02 59.3167 23.0533 59.4701 23.12L59.3101 23.84C59.2301 23.8133 59.1567 23.7933 59.0901 23.78C59.0234 23.7667 58.9401 23.76 58.8401 23.76C58.6334 23.76 58.4167 23.8433 58.1901 24.01C57.9701 24.1767 57.7767 24.4667 57.6101 24.88V28H56.7901ZM60.5769 28V20.88H61.3869V25.7H61.4169L63.4869 23.14H64.3969L62.7669 25.09L64.6169 28H63.7169L62.2969 25.66L61.3869 26.72V28H60.5769ZM66.8704 28.12C66.4637 28.12 66.1237 28 65.8504 27.76C65.5837 27.5133 65.4504 27.1733 65.4504 26.74C65.4504 26.2067 65.6871 25.8 66.1604 25.52C66.6404 25.2333 67.3971 25.0333 68.4304 24.92C68.4304 24.7133 68.4004 24.5167 68.3404 24.33C68.2871 24.1433 68.1871 23.9933 68.0404 23.88C67.9004 23.76 67.6971 23.7 67.4304 23.7C67.1504 23.7 66.8871 23.7533 66.6404 23.86C66.3937 23.9667 66.1737 24.0867 65.9804 24.22L65.6604 23.65C65.8871 23.5033 66.1637 23.3633 66.4904 23.23C66.8237 23.09 67.1837 23.02 67.5704 23.02C68.1637 23.02 68.5937 23.2033 68.8604 23.57C69.1271 23.93 69.2604 24.4133 69.2604 25.02V28H68.5804L68.5104 27.42H68.4804C68.2537 27.6067 68.0037 27.77 67.7304 27.91C67.4637 28.05 67.1771 28.12 66.8704 28.12ZM67.1104 27.46C67.3437 27.46 67.5637 27.4033 67.7704 27.29C67.9771 27.1767 68.1971 27.0167 68.4304 26.81V25.46C67.6237 25.56 67.0571 25.71 66.7304 25.91C66.4104 26.11 66.2504 26.3667 66.2504 26.68C66.2504 26.9533 66.3337 27.1533 66.5004 27.28C66.6671 27.4 66.8704 27.46 67.1104 27.46ZM70.5995 28V27.56L73.1595 23.81H70.8795V23.14H74.1995V23.58L71.6395 27.33H74.2795V28H70.5995ZM75.6775 28V23.14H76.4975V28H75.6775ZM76.0975 22.14C75.9375 22.14 75.8042 22.0933 75.6975 22C75.5975 21.9 75.5475 21.7667 75.5475 21.6C75.5475 21.44 75.5975 21.31 75.6975 21.21C75.8042 21.11 75.9375 21.06 76.0975 21.06C76.2575 21.06 76.3875 21.11 76.4875 21.21C76.5942 21.31 76.6475 21.44 76.6475 21.6C76.6475 21.7667 76.5942 21.9 76.4875 22C76.3875 22.0933 76.2575 22.14 76.0975 22.14Z" fill="black" fill-opacity="0.85"/>
</svg>
