<svg width="205" height="36" viewBox="0 0 205 36" fill="none" xmlns="http://www.w3.org/2000/svg">
<path d="M18 0.755556C8.48889 0.755556 0.755554 8.48889 0.755554 18C0.755554 27.5111 8.48889 35.2444 18 35.2444C27.5111 35.2444 35.2444 27.5111 35.2444 18C35.2444 8.48889 27.5111 0.755556 18 0.755556ZM18 36C8.04444 36 0 27.9111 0 18C0 8.08889 8.08889 0 18 0C27.9556 0 36 8.08889 36 18C36 27.9111 27.9556 36 18 36Z" fill="black" fill-opacity="0.85"/>
<path d="M7.06665 12.5777V23.3777C6.22221 21.6888 5.82221 19.8666 5.82221 17.9555C5.82221 16.0888 6.26665 14.2666 7.06665 12.5777ZM18.6667 5.82214C18.7555 5.82214 18.8 5.82214 18.8889 5.82214C19.0222 5.82214 19.2 5.82214 19.3333 5.86658C19.4222 5.86658 19.5111 5.91103 19.6 5.91103C19.7333 5.91103 19.8667 5.95547 20 5.95547C20.0889 5.95547 20.1778 5.99991 20.2667 5.99991C20.4 6.04436 20.5333 6.04436 20.6222 6.0888C20.7111 6.0888 20.8 6.13325 20.8889 6.17769C21.0222 6.22214 21.1111 6.22214 21.2444 6.26658C21.3333 6.31102 21.4222 6.31103 21.5555 6.35547C21.6889 6.39991 21.7778 6.44436 21.9111 6.44436C22 6.4888 22.0889 6.53325 22.2222 6.53325C22.3111 6.57769 22.4444 6.62214 22.5333 6.66658C22.6222 6.71102 22.7111 6.75547 22.8444 6.79991C22.9333 6.84436 23.0222 6.8888 23.1111 6.93325C23.8667 7.59991 24.4444 8.44436 24.8444 9.37769H24.3555C24.2222 9.37769 24.0444 9.37769 23.9111 9.37769C23.8667 9.37769 23.8222 9.37769 23.7778 9.37769C23.6889 9.37769 23.5555 9.37769 23.4667 9.37769C23.4222 9.37769 23.3333 9.37769 23.2889 9.37769C23.2 9.37769 23.1111 9.37769 23.0222 9.42214C22.9778 9.42214 22.8889 9.42214 22.8444 9.46658C22.7555 9.46658 22.6667 9.51102 22.5778 9.51102C22.5333 9.51102 22.4444 9.55547 22.4 9.55547C22.3111 9.55547 22.2222 9.59991 22.1333 9.59991C22.0889 9.59991 22 9.64436 21.9555 9.64436C21.8667 9.64436 21.7778 9.6888 21.7333 9.6888C21.6889 9.6888 21.6 9.73325 21.5555 9.73325C21.4667 9.77769 21.3778 9.77769 21.3333 9.82214C21.2889 9.82214 21.2 9.86658 21.1555 9.91103C21.0667 9.95547 21.0222 9.95547 20.9333 9.99991C20.8889 10.0444 20.8 10.0444 20.7555 10.0888C20.6667 10.1332 20.6222 10.1332 20.5333 10.1777C20.4889 10.2221 20.4 10.2221 20.3555 10.2666C20.2667 10.311 20.2222 10.3555 20.1333 10.3999C20.0889 10.4444 20 10.4444 19.9555 10.4888C19.8667 10.5332 19.8222 10.5777 19.7333 10.6221C19.6889 10.6666 19.6 10.6666 19.5555 10.711C19.4667 10.7555 19.4222 10.7999 19.3333 10.8444C19.2889 10.8888 19.2444 10.9332 19.1555 10.9332C19.0667 10.9777 19.0222 11.0221 18.9333 11.0666C18.8889 11.111 18.8444 11.1555 18.8 11.1999C18.7111 11.2444 18.6667 11.2888 18.5778 11.3777C18.5333 11.4221 18.4889 11.4666 18.4444 11.511C18.3555 11.5555 18.3111 11.6444 18.2222 11.6888C18.1778 11.7332 18.1333 11.7777 18.0889 11.8221C18.0889 11.8221 18.0444 11.8221 18.0444 11.8666C18.0444 11.8666 18.0444 11.8666 18 11.8221C17.9555 11.7777 17.9111 11.7332 17.8667 11.6888C17.7778 11.6444 17.7333 11.5555 17.6444 11.511C17.6 11.4666 17.5555 11.4221 17.5111 11.3777C17.4222 11.3332 17.3778 11.2888 17.2889 11.1999C17.2444 11.1555 17.2 11.111 17.1555 11.111C17.0667 11.0666 17.0222 11.0221 16.9333 10.9777C16.8889 10.9332 16.8444 10.8888 16.8 10.8888C16.7111 10.8444 16.6667 10.7999 16.5778 10.7555C16.5333 10.711 16.4889 10.711 16.4444 10.6666C16.3555 10.6221 16.3111 10.5777 16.2222 10.5332C16.1778 10.4888 16.1333 10.4888 16.0889 10.4444C16 10.3999 15.9111 10.3555 15.8222 10.311C15.7778 10.311 15.7333 10.2666 15.6889 10.2666C15.5555 10.2221 15.4222 10.1332 15.2889 10.0888C14.1333 9.59991 12.9333 9.37769 11.6889 9.37769H11.2C11.6 8.44436 12.2222 7.59991 12.9333 6.93325C13.0222 6.8888 13.1111 6.84436 13.2 6.79991C13.2889 6.75547 13.4222 6.71102 13.5111 6.66658C13.6 6.62214 13.7333 6.57769 13.8222 6.53325C13.9111 6.4888 14 6.44436 14.1333 6.44436C14.2222 6.39991 14.3555 6.35547 14.4889 6.35547C14.5778 6.31103 14.6667 6.31102 14.8 6.26658C14.9333 6.22214 15.0222 6.22214 15.1555 6.17769C15.2444 6.13325 15.3333 6.13325 15.4667 6.0888C15.6 6.04436 15.6889 6.04436 15.8222 5.99991C15.9111 5.99991 16 5.95547 16.0889 5.95547C16.2222 5.95547 16.3555 5.91103 16.4889 5.91103C16.5778 5.91103 16.6667 5.86658 16.7555 5.86658C16.8889 5.86658 17.0667 5.82214 17.2 5.82214C17.2889 5.82214 17.3333 5.82214 17.4222 5.82214C17.6444 5.82214 17.8667 5.82214 18.0889 5.82214C18.2222 5.82214 18.4444 5.82214 18.6667 5.82214ZM28.9333 23.4221V13.9555V12.5777C29.7778 14.2666 30.1778 16.0888 30.1778 17.9999C30.1778 19.911 29.7333 21.7332 28.9333 23.4221ZM24 28.6221C22.6222 29.4221 21.1111 29.911 19.5555 30.0888C20.8444 29.1999 22.4 28.6666 24 28.6221ZM16.4889 30.0888C14.9333 29.911 13.4222 29.3777 12.0444 28.6221C13.6 28.6666 15.1555 29.1999 16.4889 30.0888ZM27.3333 10.1777C27.6 10.5332 27.8667 10.8888 28.1333 11.2444V13.9555C28.1333 16.2221 27.2444 18.3999 25.6444 19.9999C25.6444 19.9999 25.6 19.9999 25.6 20.0444C25.4667 20.1332 25.2 20.311 24.8 20.6221L24.6222 20.7555L24.5778 20.7999C24.1333 21.1555 23.6889 21.511 23.2889 21.8666C23.2 21.9555 23.1111 21.9999 23.0222 22.0888C22.9778 22.1332 22.9778 22.1333 22.9333 22.1777C22.8 22.2666 22.7111 22.3555 22.5778 22.4888C22.4889 22.5777 22.4 22.6666 22.3111 22.7555C22.1778 22.8888 22 23.0221 21.8667 23.1999L21.6889 23.3777C21.6 23.4221 21.5555 23.511 21.5111 23.5555C21.3778 23.6888 21.2444 23.8221 21.1111 23.9555L20.9333 24.1332C20.1778 24.9777 19.5111 25.7777 19.0222 26.6221C18.9778 26.711 18.9333 26.7999 18.8889 26.8444C18.8 26.9777 18.7111 27.111 18.6667 27.2444C18.6222 27.2888 18.6222 27.3777 18.5778 27.4221C18.5333 27.4666 18.4889 27.5555 18.4889 27.5999C18.4444 27.6444 18.4444 27.7332 18.4 27.7777C18.3555 27.8666 18.3111 27.911 18.3111 27.9999C18.2667 28.0888 18.2222 28.1777 18.1778 28.2666C18.1333 28.3999 18.0889 28.5777 18 28.711C18 28.5777 17.9555 28.4888 17.9555 28.3555C17.9111 27.9555 17.8667 27.5555 17.8667 27.1555C17.6 19.4221 23.4222 15.4221 23.4667 15.4221L23.0222 14.7555C22.9778 14.7999 16.9333 18.9332 17.0667 26.9333C17.0222 26.7999 16.9778 26.6666 16.9333 26.4888C16.3111 24.1332 16 21.9555 16.0444 19.9555C16.0444 19.911 16.0444 19.8221 16.0444 19.7777V19.6888C16.1333 16.8444 16.8444 14.9777 17.4222 13.911C17.4667 13.8221 17.5111 13.7332 17.6 13.6444C17.9555 13.0221 18.2667 12.711 18.2667 12.711C19.8667 11.111 22.0444 10.1777 24.3555 10.1777H25.4667H27.3333ZM25.6889 9.37769C25.5111 8.93325 25.2889 8.4888 25.0222 8.04436C25.6 8.44436 26.0889 8.8888 26.5778 9.37769H25.6889ZM9.37777 9.37769C9.86665 8.8888 10.4 8.44436 10.9333 8.04436C10.6667 8.44436 10.4444 8.8888 10.2667 9.37769H9.37777ZM10.4 27.511C10.3111 27.4221 10.2222 27.3777 10.1333 27.2888C10.0889 27.2444 10.0444 27.1999 9.95554 27.1555C9.86665 27.0666 9.77776 26.9777 9.68888 26.8888C9.64443 26.8444 9.59999 26.7999 9.55554 26.7555C9.42221 26.6221 9.28888 26.5333 9.19999 26.3999C9.06665 26.2666 8.93332 26.1332 8.84443 25.9999C8.79999 25.9555 8.79999 25.911 8.75554 25.8666C8.66665 25.7777 8.57777 25.6888 8.48888 25.5555C8.44443 25.511 8.39999 25.4666 8.35554 25.3777C8.26665 25.2888 8.22221 25.1999 8.13332 25.111C8.08888 25.0666 8.04443 24.9777 7.99999 24.9332C7.95554 24.8444 7.9111 24.7999 7.86665 24.711V11.2444C7.99999 11.0666 8.13332 10.8888 8.26665 10.711C8.26665 10.6666 8.3111 10.6666 8.3111 10.6221C8.39999 10.4888 8.53332 10.3555 8.66666 10.2221H10.5778H11.6889C12.8444 10.2221 13.9111 10.4444 14.9778 10.8888C15.2 10.9777 15.4222 11.0666 15.6 11.1999C15.6444 11.1999 15.6444 11.2444 15.6889 11.2444C15.8667 11.3332 16.0889 11.4666 16.2667 11.5555C16.3111 11.5555 16.3111 11.5999 16.3555 11.5999C16.5333 11.7332 16.7111 11.8221 16.8889 11.9555C16.9333 11.9999 16.9333 11.9999 16.9778 12.0444C17.1555 12.1777 17.3333 12.311 17.5111 12.4888C17.5111 12.4888 17.5111 12.4888 17.5111 12.5332C17.4667 12.5777 17.4667 12.6221 17.4222 12.6221C17.3778 12.6666 17.3778 12.6666 17.3333 12.711C17.2889 12.7555 17.2889 12.7999 17.2444 12.8444C17.2 12.8888 17.2 12.9332 17.1555 12.9332C17.1111 12.9777 17.0667 13.0666 17.0222 13.111C17.0222 13.1555 16.9778 13.1555 16.9778 13.1999C16.9333 13.2888 16.8444 13.4221 16.8 13.5555C16.1778 14.711 15.4222 16.711 15.3333 19.6888V19.7777C15.3333 19.8221 15.3333 19.911 15.3333 19.9555C15.2889 21.9999 15.6 24.2666 16.2667 26.711C16.5333 27.6444 16.8 28.5777 17.1555 29.5555C15.5555 28.4444 13.6889 27.8221 11.7333 27.8221H10.8889C10.8 27.7777 10.7555 27.7332 10.6667 27.6888C10.5333 27.5999 10.4444 27.5555 10.4 27.511ZM28 24.9777C27.9555 25.0221 27.9111 25.111 27.8667 25.1555C27.8222 25.2444 27.7333 25.3332 27.6889 25.4221C27.6444 25.4666 27.6 25.5555 27.5555 25.5999C27.4667 25.6888 27.4222 25.7777 27.3333 25.8666C27.2889 25.911 27.2444 25.9555 27.2 25.9999C27.0667 26.1332 26.9778 26.2666 26.8444 26.3999L26.8 26.4444C26.7111 26.5333 26.5778 26.6666 26.4889 26.7555C26.4444 26.7999 26.4 26.8444 26.3555 26.8888C26.2667 26.9777 26.1778 27.0666 26.0889 27.111C26.0444 27.1555 25.9555 27.1999 25.9111 27.2444C25.8222 27.3332 25.7333 27.3777 25.6444 27.4666C25.6 27.511 25.5111 27.5555 25.4667 27.5999C25.4222 27.6444 25.3333 27.6888 25.2889 27.7333H24.4444C22.3111 27.7333 20.2222 28.4444 18.5778 29.7777C18.5778 29.7332 18.5778 29.6888 18.6222 29.6444C18.6222 29.5555 18.6667 29.4666 18.6667 29.3777C18.7111 29.2444 18.7555 29.0666 18.8 28.9333C18.8444 28.7555 18.9333 28.6221 18.9778 28.4444C19.0222 28.3555 19.0222 28.311 19.0667 28.2221C19.1111 28.1777 19.1111 28.0888 19.1555 28.0444C19.1555 27.9999 19.2 27.9555 19.2 27.911C19.2 27.911 19.2 27.911 19.2 27.8666C19.3333 27.6444 19.4667 27.3777 19.6 27.111C19.6444 27.0221 19.6889 26.9777 19.7333 26.8888C20.2222 26.1332 20.8444 25.3332 21.5555 24.5332L21.7333 24.3555C21.8667 24.2221 21.9555 24.0888 22.0889 23.9555C22.1333 23.911 22.2222 23.8221 22.2667 23.7777L22.4444 23.5999C22.6667 23.3777 22.9333 23.1555 23.1555 22.9332C23.2889 22.7999 23.4222 22.6666 23.6 22.5777C23.6889 22.4888 23.7778 22.4444 23.8667 22.3555C24.0889 22.1332 24.3555 21.9555 24.6222 21.7332C24.8 21.5999 24.9778 21.4666 25.1111 21.3333C25.1555 21.2888 25.2 21.2888 25.2444 21.2444L25.3333 21.1555C25.8222 20.7999 26.1333 20.5777 26.1778 20.5777L26.2222 20.5332C26.3111 20.4444 26.4444 20.311 26.5333 20.2221C26.5778 20.1777 26.5778 20.1332 26.6222 20.1332C26.7111 20.0444 26.7555 19.9555 26.8444 19.911C26.8889 19.8666 26.9333 19.8221 26.9333 19.7777C26.9778 19.6888 27.0667 19.6444 27.1111 19.5555C27.1555 19.511 27.2 19.4666 27.2 19.4221C27.2444 19.3332 27.2889 19.2888 27.3333 19.1999C27.3778 19.1555 27.4222 19.111 27.4222 19.0221C27.4667 18.9332 27.5111 18.8888 27.5555 18.7999C27.6 18.7555 27.6 18.711 27.6444 18.6221C27.6889 18.5332 27.7333 18.4888 27.7778 18.3999C27.8222 18.3555 27.8222 18.2666 27.8667 18.2221C27.9111 18.1332 27.9555 18.0888 28 17.9999C28.0444 17.9555 28.0444 17.8666 28.0889 17.8221C28.0889 17.7777 28.1333 17.7332 28.1333 17.6888V24.7555C28.0889 24.8444 28.0444 24.8888 28 24.9777ZM28.8444 25.111C30.2222 23.0221 30.9778 20.5332 30.9778 17.9999C30.9778 17.511 30.9333 17.0666 30.8889 16.5777C30.7111 14.7999 30.1333 13.0666 29.2444 11.5555C29.1111 11.3332 28.9778 11.111 28.8444 10.8888C28.7111 10.711 28.6222 10.5332 28.4889 10.3555C28.4444 10.311 28.4 10.2221 28.3555 10.1777C28.1778 9.95547 28 9.73325 27.8222 9.51102C26.6222 8.13325 25.1555 7.02214 23.5111 6.22214C21.7778 5.42214 19.9111 4.97769 18 4.97769C17.7778 4.97769 17.5111 4.97769 17.2889 4.97769C17.0222 4.97769 16.7555 5.02214 16.4889 5.06658C15.1111 5.24436 13.7778 5.59991 12.4889 6.22214C10.8444 6.97769 9.37776 8.13325 8.17776 9.51102C7.82221 9.95547 7.46665 10.3999 7.15554 10.8888C5.77777 12.9777 5.02221 15.4666 5.02221 17.9999C5.02221 20.5332 5.73332 22.9777 7.15554 25.111C7.55554 25.7332 7.99999 26.311 8.53332 26.8444C8.57777 26.8888 8.62221 26.9332 8.66666 26.9777C9.19999 27.5555 9.82221 28.0888 10.4444 28.5332C12.5778 30.0888 15.1111 30.9332 17.7333 30.9777C17.7778 30.9777 17.8222 30.9777 17.8667 30.9777C17.8667 30.9777 17.8667 30.9777 17.9111 30.9777C17.9555 30.9777 17.9555 30.9777 17.9555 30.9777H18C18.0889 30.9777 18.1778 30.9777 18.2667 30.9777C20.8889 30.9332 23.4222 30.0888 25.5555 28.5332C25.7778 28.3555 26 28.1777 26.2222 27.9999C27.2444 27.1555 28.1333 26.1777 28.8444 25.111Z" fill="black" fill-opacity="0.85"/>
<path d="M3.46664 21.4667L2.57775 22.4445L2.44442 21.8223L2.97775 21.2445L2.22219 20.8889L2.08886 20.2667L3.33331 20.8L4.26664 19.8223L4.39997 20.4445L3.82219 21.0223L4.57775 21.3778L4.71108 22L3.46664 21.4667Z" fill="black" fill-opacity="0.85"/>
<path d="M3.28883 17.5111L2.53328 17.7778L3.28883 18.0444V17.5111ZM1.9555 18.0444V17.5111L4.17772 16.6667V17.2444L3.73328 17.4222V18.2222L4.17772 18.4V18.9778L1.9555 18.0444Z" fill="black" fill-opacity="0.85"/>
<path d="M2.22224 15.2L2.31113 14.6222L4.00002 15.0222L4.22224 14.0889L4.66669 14.1778L4.35558 15.6444L2.22224 15.2Z" fill="black" fill-opacity="0.85"/>
<path d="M5.02226 11.8222C5.02226 11.7333 4.97782 11.6 4.93337 11.5111C4.88893 11.4222 4.80004 11.3333 4.66671 11.2889C4.53337 11.2445 4.44448 11.2 4.3556 11.2445C4.26671 11.2445 4.13337 11.2889 4.08893 11.3333C4.00004 11.3778 3.9556 11.4667 3.91115 11.6C3.86671 11.6889 3.86671 11.8222 3.86671 11.9111C3.86671 12 3.91115 12.1333 3.95559 12.1778C4.00004 12.2667 4.08893 12.3556 4.22226 12.4C4.3556 12.4445 4.44448 12.4889 4.57782 12.4445C4.66671 12.4445 4.80004 12.4 4.84448 12.3111C4.93337 12.2667 4.97782 12.1778 5.02226 12.0445C4.97782 12.0445 5.02226 11.9556 5.02226 11.8222ZM5.02226 12.8445C4.84448 12.9778 4.66671 13.0667 4.48893 13.0667C4.31115 13.1111 4.08893 13.0667 3.91115 12.9778C3.68893 12.8889 3.5556 12.7556 3.42226 12.5778C3.28893 12.4 3.24448 12.2222 3.24448 12.0445C3.24448 11.8222 3.28893 11.6445 3.37782 11.4222C3.46671 11.2 3.60004 11.0667 3.73337 10.9333C3.86671 10.8 4.08893 10.7556 4.26671 10.7111C4.44449 10.6667 4.66671 10.7111 4.88893 10.8C5.02226 10.8445 5.11115 10.9333 5.20004 11.0222C5.28893 11.1111 5.33337 11.2445 5.37782 11.3333L5.51115 10.9778L5.91115 11.1556L5.42226 12.2222C5.28893 12.5333 5.20004 12.7111 5.02226 12.8445Z" fill="black" fill-opacity="0.85"/>
<path d="M6.6667 7.33329L6.22225 7.77774L5.91114 7.46662L7.15559 6.17773L7.51114 6.48885L7.0667 6.93329L8.31114 8.13329L7.91114 8.53329L6.6667 7.33329Z" fill="black" fill-opacity="0.85"/>
<path d="M9.77784 5.82213L9.11117 5.37769L9.33339 6.13324L9.77784 5.82213ZM8.57784 5.06658L9.02228 4.75547L11.0223 6.04436L10.5778 6.35547L10.1778 6.0888L9.51117 6.57769L9.6445 7.06658L9.15561 7.37769L8.57784 5.06658Z" fill="black" fill-opacity="0.85"/>
<path d="M9.60007 4.26663L10.089 3.95552L10.5334 4.35552L10.1334 4.57774L9.60007 4.26663Z" fill="black" fill-opacity="0.85"/>
<path d="M10.8444 3.64442L11.3333 3.4222L12.0444 4.97775L12.9333 4.6222L13.1111 5.0222L11.7333 5.64442L10.8444 3.64442Z" fill="black" fill-opacity="0.85"/>
<path d="M13.4667 2.62226L14 2.48893L14.5778 4.57782L14.0445 4.75559L13.4667 2.62226Z" fill="black" fill-opacity="0.85"/>
<path d="M15.4222 2.13328L15.9555 2.08884L16.7111 3.37773L17.2444 1.99995L17.7777 1.95551L17.9555 4.13328L17.4666 4.17773L17.3333 3.06662L16.9333 4.22217H16.6666L16.0444 3.19995L16.1333 4.26662L15.6444 4.31106L15.4222 2.13328Z" fill="black" fill-opacity="0.85"/>
<path d="M19.2443 1.99995L19.8221 2.08884L19.5999 4.26662L19.0666 4.22217L19.2443 1.99995Z" fill="black" fill-opacity="0.85"/>
<path d="M23.3333 2.8444L23.8667 3.06662L23.7778 4.62218L24.8889 3.51107L25.4222 3.77774L23.7778 5.42218L23.2444 5.19996L23.3333 2.8444Z" fill="black" fill-opacity="0.85"/>
<path d="M26.6667 6.1333L26.8889 5.37775L26.2222 5.82219L26.6667 6.1333ZM26.9778 4.71108L27.4222 5.02219L26.8889 7.33331L26.4 7.02219L26.5333 6.5333L25.8667 6.04442L25.4667 6.31108L24.9778 5.99997L26.9778 4.71108Z" fill="black" fill-opacity="0.85"/>
<path d="M27.8222 7.68893L29.4667 7.51115L28.8444 6.80004L29.1555 6.48893L30.3111 7.68893L30.0444 7.9556L28.3555 8.13337L29.0667 8.93337L28.7555 9.24449L27.5555 7.9556L27.8222 7.68893Z" fill="black" fill-opacity="0.85"/>
<path d="M31.1556 8.8444L31.4667 9.33329L29.6445 10.5333L29.3334 10.0888L31.1556 8.8444Z" fill="black" fill-opacity="0.85"/>
<path d="M31.6445 11.8222C31.689 11.9111 31.7334 12 31.8223 12.0444C31.8668 12.0889 31.9556 12.0889 32.0445 12.0444C32.1334 12 32.1779 11.9556 32.2223 11.8667C32.2223 11.7778 32.2223 11.6889 32.1779 11.6L32.0445 11.2889L31.5112 11.5111L31.6445 11.8222ZM32.2223 10.5778L32.6223 11.4667C32.7112 11.6889 32.7556 11.9111 32.7112 12.0889C32.6668 12.2667 32.5334 12.4 32.3112 12.5333C32.1779 12.6222 32.0001 12.6222 31.8668 12.6222C31.7334 12.6222 31.6001 12.5333 31.5112 12.4444L30.9779 13.1111L30.7556 12.5778L31.2445 11.9556L31.1112 11.6889L30.489 11.9556L30.2668 11.4667C30.2223 11.4667 32.2223 10.5778 32.2223 10.5778Z" fill="black" fill-opacity="0.85"/>
<path d="M33.4223 13.5555L33.5556 14.1333L31.8667 14.5333L32.0889 15.4666L31.6445 15.5555L31.2889 14.0888L33.4223 13.5555Z" fill="black" fill-opacity="0.85"/>
<path d="M33.9555 16.3556L33.9999 16.8889L31.7777 17.0667L31.7333 16.5334L33.9555 16.3556Z" fill="black" fill-opacity="0.85"/>
<path d="M31.9112 18.6667C32.0001 18.4889 32.1778 18.3556 32.3556 18.2667C32.5334 18.1778 32.7556 18.1334 32.9778 18.1778C33.2 18.1778 33.4223 18.2667 33.5556 18.3556C33.7334 18.4889 33.8223 18.6223 33.9112 18.8001C34.0001 18.9778 34 19.2001 34 19.4223C34 19.6001 33.9556 19.7334 33.9112 19.8223C33.8667 19.9556 33.8223 20.0445 33.7334 20.1334L33.2 20.0889C33.2889 20.0001 33.3334 19.9112 33.3778 19.7778C33.4223 19.6445 33.4667 19.5112 33.4667 19.3778C33.4667 19.2445 33.4667 19.1112 33.4223 19.0223C33.3778 18.9334 33.3334 18.8445 33.2 18.7556C33.1112 18.7112 32.9778 18.6667 32.8889 18.6223C32.7112 18.6223 32.5334 18.6667 32.4 18.7556C32.2667 18.8445 32.2223 19.0223 32.1778 19.2001C32.1778 19.2889 32.1778 19.4223 32.2223 19.4667L32.5778 19.5112L32.6223 19.1556L33.0223 19.2001L32.9334 20.0445L31.8223 19.9556C31.6889 19.7334 31.6445 19.4223 31.6889 19.1112C31.7334 19.0667 31.7778 18.8445 31.9112 18.6667Z" fill="black" fill-opacity="0.85"/>
<path d="M33.6 21.689L33.4666 22.2223L31.3333 21.689L31.4666 21.1112L33.6 21.689Z" fill="black" fill-opacity="0.85"/>
<path d="M10.8 32.1778C10.7111 31.9556 10.7555 31.6889 10.8444 31.4223L11.3777 30.2667L11.8666 30.4889L11.3333 31.6445C11.2889 31.7778 11.2444 31.9112 11.2889 32C11.3333 32.0889 11.4222 32.1778 11.5555 32.2223C11.6889 32.2667 11.7777 32.3112 11.9111 32.2667C12 32.2223 12.0889 32.1334 12.1333 32L12.6666 30.8445L13.1555 31.0667L12.6222 32.2223C12.4889 32.4889 12.3111 32.6667 12.0889 32.7556C11.8666 32.8445 11.6 32.8445 11.2889 32.7112C11.0666 32.5778 10.8889 32.4 10.8 32.1778Z" fill="black" fill-opacity="0.85"/>
<path d="M13.8222 33.1556L15.111 32.0445L14.1333 31.8667L14.2222 31.3778L15.8666 31.7334L15.7777 32.1334L14.5333 33.2445L15.5555 33.4667L15.4666 33.9112L13.7333 33.5556L13.8222 33.1556Z" fill="black" fill-opacity="0.85"/>
<path d="M17.0667 31.8666L18.6222 31.9111V32.3555H17.6V32.7555H18.3556L18.3111 33.2H17.6V33.6L18.5778 33.6444V34.0889H17.0222L17.0667 31.8666Z" fill="black" fill-opacity="0.85"/>
<path d="M20.8888 33.3334C21.0666 33.2889 21.1999 33.2 21.2888 33.0667C21.3777 32.9334 21.3777 32.7556 21.3333 32.5778C21.2888 32.4 21.1999 32.2667 21.1111 32.1778C20.9777 32.0889 20.8444 32.0445 20.6666 32.0889L20.3999 32.1334L20.6222 33.3778L20.8888 33.3334ZM19.7333 31.8223L20.4888 31.6889C20.711 31.6445 20.9333 31.6445 21.1555 31.6889C21.3333 31.7334 21.5111 31.8223 21.6444 32C21.7777 32.1334 21.8666 32.3112 21.9111 32.5334C21.9999 32.8889 21.9111 33.2 21.7333 33.4223C21.5555 33.6445 21.2888 33.7778 20.9333 33.8667L20.1777 34L19.7333 31.8223Z" fill="black" fill-opacity="0.85"/>
<path d="M23.7778 32.8C23.5555 32.7111 23.3778 32.5334 23.2444 32.2667L22.7111 31.1111L23.2 30.8889L23.7333 32.0445C23.7778 32.1778 23.8666 32.2667 23.9555 32.3111C24.0444 32.3556 24.1778 32.3556 24.3111 32.2667C24.4444 32.2222 24.5333 32.1334 24.5778 32.0445C24.6222 31.9556 24.6222 31.8222 24.5333 31.6889L24 30.5334L24.4889 30.3111L25.0222 31.4667C25.1555 31.7334 25.1555 32 25.0666 32.2222C24.9778 32.4445 24.8 32.6222 24.4889 32.7556C24.2666 32.8445 24 32.8889 23.7778 32.8Z" fill="black" fill-opacity="0.85"/>
<path d="M45.32 15.12C44.7733 15.12 44.2867 14.98 43.86 14.7C43.44 14.42 43.11 14.0233 42.87 13.51C42.6367 12.9967 42.52 12.39 42.52 11.69C42.52 10.99 42.6367 10.39 42.87 9.89C43.11 9.38333 43.44 8.99667 43.86 8.73C44.2867 8.45667 44.7733 8.32 45.32 8.32C45.8733 8.32 46.36 8.45667 46.78 8.73C47.2 8.99667 47.53 9.38333 47.77 9.89C48.01 10.39 48.13 10.99 48.13 11.69C48.13 12.39 48.01 12.9967 47.77 13.51C47.53 14.0233 47.2 14.42 46.78 14.7C46.36 14.98 45.8733 15.12 45.32 15.12ZM45.32 14.39C45.7133 14.39 46.0533 14.28 46.34 14.06C46.6333 13.8333 46.86 13.52 47.02 13.12C47.18 12.7133 47.26 12.2367 47.26 11.69C47.26 10.8767 47.0833 10.2333 46.73 9.76C46.3767 9.28667 45.9067 9.05 45.32 9.05C44.7333 9.05 44.2633 9.28667 43.91 9.76C43.5567 10.2333 43.38 10.8767 43.38 11.69C43.38 12.2367 43.46 12.7133 43.62 13.12C43.78 13.52 44.0067 13.8333 44.3 14.06C44.5933 14.28 44.9333 14.39 45.32 14.39ZM49.8206 10.69L49.5906 10.31C49.844 10.1433 50.0306 9.96667 50.1506 9.78C50.2773 9.58667 50.3406 9.34667 50.3406 9.06C50.3206 9.06667 50.294 9.07 50.2606 9.07C50.1206 9.07 49.9973 9.02667 49.8906 8.94C49.784 8.85333 49.7306 8.73 49.7306 8.57C49.7306 8.39667 49.7806 8.26 49.8806 8.16C49.9806 8.06 50.1073 8.01 50.2606 8.01C50.454 8.01 50.6073 8.09 50.7206 8.25C50.834 8.40333 50.8906 8.62667 50.8906 8.92C50.8906 9.32 50.7973 9.66667 50.6106 9.96C50.4306 10.2467 50.1673 10.49 49.8206 10.69ZM51.8172 15V14.56L54.3772 10.81H52.0972V10.14H55.4172V10.58L52.8572 14.33H55.4972V15H51.8172ZM59.0452 15.12C58.8186 15.12 58.5819 15.0667 58.3352 14.96C58.0952 14.8467 57.8686 14.6933 57.6552 14.5H57.6252L57.5552 15H56.8952V7.88H57.7152V9.82L57.6952 10.7C57.9152 10.5067 58.1552 10.3467 58.4152 10.22C58.6819 10.0867 58.9486 10.02 59.2152 10.02C59.8486 10.02 60.3286 10.2433 60.6552 10.69C60.9819 11.1367 61.1452 11.7367 61.1452 12.49C61.1452 13.0433 61.0452 13.5167 60.8452 13.91C60.6519 14.3033 60.3952 14.6033 60.0752 14.81C59.7619 15.0167 59.4186 15.12 59.0452 15.12ZM58.9052 14.43C59.3052 14.43 59.6352 14.26 59.8952 13.92C60.1619 13.5733 60.2952 13.1 60.2952 12.5C60.2952 11.9667 60.1952 11.5367 59.9952 11.21C59.8019 10.8767 59.4752 10.71 59.0152 10.71C58.8086 10.71 58.5986 10.7667 58.3852 10.88C58.1719 10.9933 57.9486 11.1567 57.7152 11.37V13.92C57.9286 14.1067 58.1386 14.24 58.3452 14.32C58.5586 14.3933 58.7452 14.43 58.9052 14.43ZM64.7126 15.12C64.2792 15.12 63.8859 15.02 63.5326 14.82C63.1792 14.6133 62.8992 14.32 62.6926 13.94C62.4859 13.56 62.3826 13.1067 62.3826 12.58C62.3826 12.0467 62.4859 11.59 62.6926 11.21C62.9059 10.83 63.1792 10.5367 63.5126 10.33C63.8459 10.1233 64.1959 10.02 64.5626 10.02C65.1826 10.02 65.6592 10.2267 65.9926 10.64C66.3326 11.0533 66.5026 11.6067 66.5026 12.3C66.5026 12.3867 66.4992 12.4733 66.4926 12.56C66.4926 12.64 66.4859 12.71 66.4726 12.77H63.1926C63.2259 13.2833 63.3859 13.6933 63.6726 14C63.9659 14.3067 64.3459 14.46 64.8126 14.46C65.0459 14.46 65.2592 14.4267 65.4526 14.36C65.6526 14.2867 65.8426 14.1933 66.0226 14.08L66.3126 14.62C66.1059 14.7533 65.8692 14.87 65.6026 14.97C65.3426 15.07 65.0459 15.12 64.7126 15.12ZM63.1826 12.18H65.7826C65.7826 11.6867 65.6759 11.3133 65.4626 11.06C65.2559 10.8 64.9626 10.67 64.5826 10.67C64.2426 10.67 63.9359 10.8033 63.6626 11.07C63.3959 11.33 63.2359 11.7 63.1826 12.18ZM68.0235 15V7.88H68.8335V12.7H68.8635L70.9335 10.14H71.8435L70.2135 12.09L72.0635 15H71.1635L69.7435 12.66L68.8335 13.72V15H68.0235ZM73.2947 15V10.14H74.1147V15H73.2947ZM73.7147 9.14C73.5547 9.14 73.4214 9.09333 73.3147 9C73.2147 8.9 73.1647 8.76667 73.1647 8.6C73.1647 8.44 73.2147 8.31 73.3147 8.21C73.4214 8.11 73.5547 8.06 73.7147 8.06C73.8747 8.06 74.0047 8.11 74.1047 8.21C74.2114 8.31 74.2647 8.44 74.2647 8.6C74.2647 8.76667 74.2114 8.9 74.1047 9C74.0047 9.09333 73.8747 9.14 73.7147 9.14ZM77.3456 15.12C76.999 15.12 76.669 15.0567 76.3556 14.93C76.0423 14.7967 75.769 14.6367 75.5356 14.45L75.9456 13.9C76.159 14.0667 76.379 14.2067 76.6056 14.32C76.8323 14.4267 77.089 14.48 77.3756 14.48C77.6956 14.48 77.9356 14.4067 78.0956 14.26C78.2556 14.1067 78.3356 13.9267 78.3356 13.72C78.3356 13.5533 78.279 13.4133 78.1656 13.3C78.059 13.1867 77.919 13.0933 77.7456 13.02C77.579 12.94 77.4056 12.8667 77.2256 12.8C76.999 12.7133 76.7756 12.6167 76.5556 12.51C76.3356 12.3967 76.1556 12.2533 76.0156 12.08C75.8756 11.9 75.8056 11.6733 75.8056 11.4C75.8056 11.0067 75.9523 10.68 76.2456 10.42C76.5456 10.1533 76.959 10.02 77.4856 10.02C77.7856 10.02 78.0656 10.0733 78.3256 10.18C78.5856 10.2867 78.809 10.4167 78.9956 10.57L78.5956 11.09C78.429 10.9633 78.2556 10.86 78.0756 10.78C77.8956 10.7 77.699 10.66 77.4856 10.66C77.179 10.66 76.9523 10.73 76.8056 10.87C76.6656 11.01 76.5956 11.1733 76.5956 11.36C76.5956 11.5133 76.6456 11.64 76.7456 11.74C76.8456 11.8333 76.9756 11.9167 77.1356 11.99C77.2956 12.0567 77.4656 12.1267 77.6456 12.2C77.879 12.2867 78.109 12.3867 78.3356 12.5C78.5623 12.6067 78.749 12.7533 78.8956 12.94C79.049 13.12 79.1256 13.3633 79.1256 13.67C79.1256 13.93 79.0556 14.17 78.9156 14.39C78.7823 14.61 78.5823 14.7867 78.3156 14.92C78.0556 15.0533 77.7323 15.12 77.3456 15.12ZM81.9198 15.12C81.3998 15.12 81.0364 14.97 80.8298 14.67C80.6298 14.37 80.5298 13.98 80.5298 13.5V10.81H79.8098V10.19L80.5698 10.14L80.6698 8.78H81.3598V10.14H82.6698V10.81H81.3598V13.51C81.3598 13.81 81.4131 14.0433 81.5198 14.21C81.6331 14.37 81.8298 14.45 82.1098 14.45C82.1964 14.45 82.2898 14.4367 82.3898 14.41C82.4898 14.3767 82.5798 14.3467 82.6598 14.32L82.8198 14.94C82.6864 14.9867 82.5398 15.0267 82.3798 15.06C82.2264 15.1 82.0731 15.12 81.9198 15.12ZM85.842 15.12C85.4486 15.12 85.0786 15.02 84.732 14.82C84.392 14.62 84.1153 14.33 83.902 13.95C83.6953 13.57 83.592 13.1133 83.592 12.58C83.592 12.0333 83.6953 11.57 83.902 11.19C84.1153 10.81 84.392 10.52 84.732 10.32C85.0786 10.12 85.4486 10.02 85.842 10.02C86.242 10.02 86.612 10.12 86.952 10.32C87.292 10.52 87.5653 10.81 87.772 11.19C87.9853 11.57 88.092 12.0333 88.092 12.58C88.092 13.1133 87.9853 13.57 87.772 13.95C87.5653 14.33 87.292 14.62 86.952 14.82C86.612 15.02 86.242 15.12 85.842 15.12ZM85.842 14.44C86.262 14.44 86.5986 14.27 86.852 13.93C87.112 13.5833 87.242 13.1333 87.242 12.58C87.242 12.02 87.112 11.5667 86.852 11.22C86.5986 10.8733 86.262 10.7 85.842 10.7C85.4286 10.7 85.092 10.8733 84.832 11.22C84.572 11.5667 84.442 12.02 84.442 12.58C84.442 13.1333 84.572 13.5833 84.832 13.93C85.092 14.27 85.4286 14.44 85.842 14.44ZM89.6919 15V10.14H90.3719L90.4419 10.84H90.4719C90.7052 10.6067 90.9519 10.4133 91.2119 10.26C91.4719 10.1 91.7685 10.02 92.1019 10.02C92.6152 10.02 92.9885 10.1833 93.2219 10.51C93.4619 10.83 93.5819 11.3 93.5819 11.92V15H92.7619V12.03C92.7619 11.5767 92.6885 11.2467 92.5419 11.04C92.3952 10.8333 92.1619 10.73 91.8419 10.73C91.5952 10.73 91.3719 10.7933 91.1719 10.92C90.9785 11.0467 90.7585 11.2333 90.5119 11.48V15H89.6919ZM97.8826 15V8.44H99.9326C100.379 8.44 100.776 8.5 101.123 8.62C101.469 8.73333 101.739 8.92667 101.933 9.2C102.133 9.46667 102.233 9.82667 102.233 10.28C102.233 10.7867 102.099 11.1967 101.833 11.51C101.566 11.8167 101.206 12.0267 100.753 12.14L102.423 15H101.483L99.9026 12.23H98.7126V15H97.8826ZM98.7126 11.55H99.8126C100.326 11.55 100.719 11.4467 100.993 11.24C101.266 11.0267 101.403 10.7067 101.403 10.28C101.403 9.84667 101.266 9.54333 100.993 9.37C100.719 9.19667 100.326 9.11 99.8126 9.11H98.7126V11.55ZM105.688 15.12C105.255 15.12 104.862 15.02 104.508 14.82C104.155 14.6133 103.875 14.32 103.668 13.94C103.462 13.56 103.358 13.1067 103.358 12.58C103.358 12.0467 103.462 11.59 103.668 11.21C103.882 10.83 104.155 10.5367 104.488 10.33C104.822 10.1233 105.172 10.02 105.538 10.02C106.158 10.02 106.635 10.2267 106.968 10.64C107.308 11.0533 107.478 11.6067 107.478 12.3C107.478 12.3867 107.475 12.4733 107.468 12.56C107.468 12.64 107.462 12.71 107.448 12.77H104.168C104.202 13.2833 104.362 13.6933 104.648 14C104.942 14.3067 105.322 14.46 105.788 14.46C106.022 14.46 106.235 14.4267 106.428 14.36C106.628 14.2867 106.818 14.1933 106.998 14.08L107.288 14.62C107.082 14.7533 106.845 14.87 106.578 14.97C106.318 15.07 106.022 15.12 105.688 15.12ZM104.158 12.18H106.758C106.758 11.6867 106.652 11.3133 106.438 11.06C106.232 10.8 105.938 10.67 105.558 10.67C105.218 10.67 104.912 10.8033 104.638 11.07C104.372 11.33 104.212 11.7 104.158 12.18ZM110.269 15.12C109.923 15.12 109.593 15.0567 109.279 14.93C108.966 14.7967 108.693 14.6367 108.459 14.45L108.869 13.9C109.083 14.0667 109.303 14.2067 109.529 14.32C109.756 14.4267 110.013 14.48 110.299 14.48C110.619 14.48 110.859 14.4067 111.019 14.26C111.179 14.1067 111.259 13.9267 111.259 13.72C111.259 13.5533 111.203 13.4133 111.089 13.3C110.983 13.1867 110.843 13.0933 110.669 13.02C110.503 12.94 110.329 12.8667 110.149 12.8C109.923 12.7133 109.699 12.6167 109.479 12.51C109.259 12.3967 109.079 12.2533 108.939 12.08C108.799 11.9 108.729 11.6733 108.729 11.4C108.729 11.0067 108.876 10.68 109.169 10.42C109.469 10.1533 109.883 10.02 110.409 10.02C110.709 10.02 110.989 10.0733 111.249 10.18C111.509 10.2867 111.733 10.4167 111.919 10.57L111.519 11.09C111.353 10.9633 111.179 10.86 110.999 10.78C110.819 10.7 110.623 10.66 110.409 10.66C110.103 10.66 109.876 10.73 109.729 10.87C109.589 11.01 109.519 11.1733 109.519 11.36C109.519 11.5133 109.569 11.64 109.669 11.74C109.769 11.8333 109.899 11.9167 110.059 11.99C110.219 12.0567 110.389 12.1267 110.569 12.2C110.803 12.2867 111.033 12.3867 111.259 12.5C111.486 12.6067 111.673 12.7533 111.819 12.94C111.973 13.12 112.049 13.3633 112.049 13.67C112.049 13.93 111.979 14.17 111.839 14.39C111.706 14.61 111.506 14.7867 111.239 14.92C110.979 15.0533 110.656 15.12 110.269 15.12ZM113.509 17.05V10.14H114.189L114.259 10.7H114.289C114.509 10.5133 114.749 10.3533 115.009 10.22C115.275 10.0867 115.552 10.02 115.839 10.02C116.465 10.02 116.942 10.2467 117.269 10.7C117.595 11.1467 117.759 11.7467 117.759 12.5C117.759 13.0467 117.659 13.5167 117.459 13.91C117.265 14.3033 117.009 14.6033 116.689 14.81C116.375 15.0167 116.032 15.12 115.659 15.12C115.432 15.12 115.205 15.07 114.979 14.97C114.759 14.87 114.535 14.7333 114.309 14.56L114.329 15.41V17.05H113.509ZM115.519 14.43C115.919 14.43 116.249 14.26 116.509 13.92C116.775 13.5733 116.909 13.1 116.909 12.5C116.909 11.9667 116.809 11.5367 116.609 11.21C116.415 10.8767 116.089 10.71 115.629 10.71C115.422 10.71 115.212 10.7667 114.999 10.88C114.792 10.9933 114.569 11.1567 114.329 11.37V13.92C114.549 14.1067 114.762 14.24 114.969 14.32C115.175 14.3933 115.359 14.43 115.519 14.43ZM120.796 15.12C120.282 15.12 119.906 14.96 119.666 14.64C119.426 14.3133 119.306 13.84 119.306 13.22V10.14H120.136V13.11C120.136 13.5633 120.206 13.8933 120.346 14.1C120.492 14.3067 120.726 14.41 121.046 14.41C121.299 14.41 121.522 14.3467 121.716 14.22C121.916 14.0867 122.129 13.8767 122.356 13.59V10.14H123.176V15H122.496L122.426 14.24H122.396C122.169 14.5067 121.929 14.72 121.676 14.88C121.422 15.04 121.129 15.12 120.796 15.12ZM127.285 15.12C127.058 15.12 126.822 15.0667 126.575 14.96C126.335 14.8467 126.108 14.6933 125.895 14.5H125.865L125.795 15H125.135V7.88H125.955V9.82L125.935 10.7C126.155 10.5067 126.395 10.3467 126.655 10.22C126.922 10.0867 127.188 10.02 127.455 10.02C128.088 10.02 128.568 10.2433 128.895 10.69C129.222 11.1367 129.385 11.7367 129.385 12.49C129.385 13.0433 129.285 13.5167 129.085 13.91C128.892 14.3033 128.635 14.6033 128.315 14.81C128.002 15.0167 127.658 15.12 127.285 15.12ZM127.145 14.43C127.545 14.43 127.875 14.26 128.135 13.92C128.402 13.5733 128.535 13.1 128.535 12.5C128.535 11.9667 128.435 11.5367 128.235 11.21C128.042 10.8767 127.715 10.71 127.255 10.71C127.048 10.71 126.838 10.7667 126.625 10.88C126.412 10.9933 126.188 11.1567 125.955 11.37V13.92C126.168 14.1067 126.378 14.24 126.585 14.32C126.798 14.3933 126.985 14.43 127.145 14.43ZM131.852 15.12C131.546 15.12 131.322 15.0267 131.182 14.84C131.049 14.6467 130.982 14.3733 130.982 14.02V7.88H131.802V14.08C131.802 14.2067 131.826 14.3 131.872 14.36C131.919 14.4133 131.972 14.44 132.032 14.44C132.059 14.44 132.082 14.44 132.102 14.44C132.129 14.4333 132.166 14.4267 132.212 14.42L132.322 15.04C132.269 15.0667 132.206 15.0867 132.132 15.1C132.059 15.1133 131.966 15.12 131.852 15.12ZM133.851 15V10.14H134.671V15H133.851ZM134.271 9.14C134.111 9.14 133.978 9.09333 133.871 9C133.771 8.9 133.721 8.76667 133.721 8.6C133.721 8.44 133.771 8.31 133.871 8.21C133.978 8.11 134.111 8.06 134.271 8.06C134.431 8.06 134.561 8.11 134.661 8.21C134.768 8.31 134.821 8.44 134.821 8.6C134.821 8.76667 134.768 8.9 134.661 9C134.561 9.09333 134.431 9.14 134.271 9.14ZM136.632 15V7.88H137.442V12.7H137.472L139.542 10.14H140.452L138.822 12.09L140.672 15H139.772L138.352 12.66L137.442 13.72V15H136.632ZM142.926 15.12C142.519 15.12 142.179 15 141.906 14.76C141.639 14.5133 141.506 14.1733 141.506 13.74C141.506 13.2067 141.742 12.8 142.216 12.52C142.696 12.2333 143.452 12.0333 144.486 11.92C144.486 11.7133 144.456 11.5167 144.396 11.33C144.342 11.1433 144.242 10.9933 144.096 10.88C143.956 10.76 143.752 10.7 143.486 10.7C143.206 10.7 142.942 10.7533 142.696 10.86C142.449 10.9667 142.229 11.0867 142.036 11.22L141.716 10.65C141.942 10.5033 142.219 10.3633 142.546 10.23C142.879 10.09 143.239 10.02 143.626 10.02C144.219 10.02 144.649 10.2033 144.916 10.57C145.182 10.93 145.316 11.4133 145.316 12.02V15H144.636L144.566 14.42H144.536C144.309 14.6067 144.059 14.77 143.786 14.91C143.519 15.05 143.232 15.12 142.926 15.12ZM143.166 14.46C143.399 14.46 143.619 14.4033 143.826 14.29C144.032 14.1767 144.252 14.0167 144.486 13.81V12.46C143.679 12.56 143.112 12.71 142.786 12.91C142.466 13.11 142.306 13.3667 142.306 13.68C142.306 13.9533 142.389 14.1533 142.556 14.28C142.722 14.4 142.926 14.46 143.166 14.46ZM148.435 15.12C148.088 15.12 147.758 15.0567 147.445 14.93C147.131 14.7967 146.858 14.6367 146.625 14.45L147.035 13.9C147.248 14.0667 147.468 14.2067 147.695 14.32C147.921 14.4267 148.178 14.48 148.465 14.48C148.785 14.48 149.025 14.4067 149.185 14.26C149.345 14.1067 149.425 13.9267 149.425 13.72C149.425 13.5533 149.368 13.4133 149.255 13.3C149.148 13.1867 149.008 13.0933 148.835 13.02C148.668 12.94 148.495 12.8667 148.315 12.8C148.088 12.7133 147.865 12.6167 147.645 12.51C147.425 12.3967 147.245 12.2533 147.105 12.08C146.965 11.9 146.895 11.6733 146.895 11.4C146.895 11.0067 147.041 10.68 147.335 10.42C147.635 10.1533 148.048 10.02 148.575 10.02C148.875 10.02 149.155 10.0733 149.415 10.18C149.675 10.2867 149.898 10.4167 150.085 10.57L149.685 11.09C149.518 10.9633 149.345 10.86 149.165 10.78C148.985 10.7 148.788 10.66 148.575 10.66C148.268 10.66 148.041 10.73 147.895 10.87C147.755 11.01 147.685 11.1733 147.685 11.36C147.685 11.5133 147.735 11.64 147.835 11.74C147.935 11.8333 148.065 11.9167 148.225 11.99C148.385 12.0567 148.555 12.1267 148.735 12.2C148.968 12.2867 149.198 12.3867 149.425 12.5C149.651 12.6067 149.838 12.7533 149.985 12.94C150.138 13.12 150.215 13.3633 150.215 13.67C150.215 13.93 150.145 14.17 150.005 14.39C149.871 14.61 149.671 14.7867 149.405 14.92C149.145 15.0533 148.821 15.12 148.435 15.12ZM151.674 15V10.14H152.494V15H151.674ZM152.094 9.14C151.934 9.14 151.801 9.09333 151.694 9C151.594 8.9 151.544 8.76667 151.544 8.6C151.544 8.44 151.594 8.31 151.694 8.21C151.801 8.11 151.934 8.06 152.094 8.06C152.254 8.06 152.384 8.11 152.484 8.21C152.591 8.31 152.644 8.44 152.644 8.6C152.644 8.76667 152.591 8.9 152.484 9C152.384 9.09333 152.254 9.14 152.094 9.14ZM156.107 15L158.017 11.61L156.237 8.44H157.157L158.047 10.12C158.134 10.2667 158.214 10.4133 158.287 10.56C158.367 10.7067 158.457 10.8767 158.557 11.07H158.597C158.69 10.8767 158.77 10.7067 158.837 10.56C158.91 10.4133 158.987 10.2667 159.067 10.12L159.937 8.44H160.817L159.027 11.65L160.937 15H160.017L159.057 13.23C158.97 13.07 158.88 12.9067 158.787 12.74C158.7 12.5667 158.604 12.38 158.497 12.18H158.457C158.364 12.38 158.274 12.5667 158.187 12.74C158.1 12.9067 158.017 13.07 157.937 13.23L156.987 15H156.107ZM163.246 15.12C162.84 15.12 162.5 15 162.226 14.76C161.96 14.5133 161.826 14.1733 161.826 13.74C161.826 13.2067 162.063 12.8 162.536 12.52C163.016 12.2333 163.773 12.0333 164.806 11.92C164.806 11.7133 164.776 11.5167 164.716 11.33C164.663 11.1433 164.563 10.9933 164.416 10.88C164.276 10.76 164.073 10.7 163.806 10.7C163.526 10.7 163.263 10.7533 163.016 10.86C162.77 10.9667 162.55 11.0867 162.356 11.22L162.036 10.65C162.263 10.5033 162.54 10.3633 162.866 10.23C163.2 10.09 163.56 10.02 163.946 10.02C164.54 10.02 164.97 10.2033 165.236 10.57C165.503 10.93 165.636 11.4133 165.636 12.02V15H164.956L164.886 14.42H164.856C164.63 14.6067 164.38 14.77 164.106 14.91C163.84 15.05 163.553 15.12 163.246 15.12ZM163.486 14.46C163.72 14.46 163.94 14.4033 164.146 14.29C164.353 14.1767 164.573 14.0167 164.806 13.81V12.46C164 12.56 163.433 12.71 163.106 12.91C162.786 13.11 162.626 13.3667 162.626 13.68C162.626 13.9533 162.71 14.1533 162.876 14.28C163.043 14.4 163.246 14.46 163.486 14.46ZM168.355 15.12C168.049 15.12 167.825 15.0267 167.685 14.84C167.552 14.6467 167.485 14.3733 167.485 14.02V7.88H168.305V14.08C168.305 14.2067 168.329 14.3 168.375 14.36C168.422 14.4133 168.475 14.44 168.535 14.44C168.562 14.44 168.585 14.44 168.605 14.44C168.632 14.4333 168.669 14.4267 168.715 14.42L168.825 15.04C168.772 15.0667 168.709 15.0867 168.635 15.1C168.562 15.1133 168.469 15.12 168.355 15.12ZM173.434 17.05V15.32L173.474 14.44C173.281 14.6267 173.058 14.7867 172.804 14.92C172.558 15.0533 172.294 15.12 172.014 15.12C171.408 15.12 170.921 14.9 170.554 14.46C170.188 14.0133 170.004 13.3867 170.004 12.58C170.004 12.0533 170.101 11.6 170.294 11.22C170.494 10.8333 170.754 10.5367 171.074 10.33C171.401 10.1233 171.748 10.02 172.114 10.02C172.394 10.02 172.641 10.07 172.854 10.17C173.068 10.2633 173.284 10.4067 173.504 10.6H173.524L173.604 10.14H174.264V17.05H173.434ZM172.194 14.43C172.621 14.43 173.034 14.2067 173.434 13.76V11.22C173.228 11.0333 173.028 10.9033 172.834 10.83C172.648 10.75 172.454 10.71 172.254 10.71C171.994 10.71 171.758 10.79 171.544 10.95C171.338 11.1033 171.171 11.32 171.044 11.6C170.918 11.8733 170.854 12.1967 170.854 12.57C170.854 13.15 170.971 13.6067 171.204 13.94C171.438 14.2667 171.768 14.43 172.194 14.43ZM44.26 28V22.14H42.28V21.44H47.08V22.14H45.1V28H44.26ZM48.8889 28.12C48.4822 28.12 48.1422 28 47.8689 27.76C47.6022 27.5133 47.4689 27.1733 47.4689 26.74C47.4689 26.2067 47.7056 25.8 48.1789 25.52C48.6589 25.2333 49.4156 25.0333 50.4489 24.92C50.4489 24.7133 50.4189 24.5167 50.3589 24.33C50.3056 24.1433 50.2056 23.9933 50.0589 23.88C49.9189 23.76 49.7156 23.7 49.4489 23.7C49.1689 23.7 48.9056 23.7533 48.6589 23.86C48.4122 23.9667 48.1922 24.0867 47.9989 24.22L47.6789 23.65C47.9056 23.5033 48.1822 23.3633 48.5089 23.23C48.8422 23.09 49.2022 23.02 49.5889 23.02C50.1822 23.02 50.6122 23.2033 50.8789 23.57C51.1456 23.93 51.2789 24.4133 51.2789 25.02V28H50.5989L50.5289 27.42H50.4989C50.2722 27.6067 50.0222 27.77 49.7489 27.91C49.4822 28.05 49.1956 28.12 48.8889 28.12ZM49.1289 27.46C49.3622 27.46 49.5822 27.4033 49.7889 27.29C49.9956 27.1767 50.2156 27.0167 50.4489 26.81V25.46C49.6422 25.56 49.0756 25.71 48.7489 25.91C48.4289 26.11 48.2689 26.3667 48.2689 26.68C48.2689 26.9533 48.3522 27.1533 48.5189 27.28C48.6856 27.4 48.8889 27.46 49.1289 27.46ZM53.0117 23.69L52.7817 23.31C53.0351 23.1433 53.2217 22.9667 53.3417 22.78C53.4684 22.5867 53.5317 22.3467 53.5317 22.06C53.5117 22.0667 53.4851 22.07 53.4517 22.07C53.3117 22.07 53.1884 22.0267 53.0817 21.94C52.9751 21.8533 52.9217 21.73 52.9217 21.57C52.9217 21.3967 52.9717 21.26 53.0717 21.16C53.1717 21.06 53.2984 21.01 53.4517 21.01C53.6451 21.01 53.7984 21.09 53.9117 21.25C54.0251 21.4033 54.0817 21.6267 54.0817 21.92C54.0817 22.32 53.9884 22.6667 53.8017 22.96C53.6217 23.2467 53.3584 23.49 53.0117 23.69ZM56.652 28.12C56.3453 28.12 56.122 28.0267 55.982 27.84C55.8486 27.6467 55.782 27.3733 55.782 27.02V20.88H56.602V27.08C56.602 27.2067 56.6253 27.3 56.672 27.36C56.7186 27.4133 56.772 27.44 56.832 27.44C56.8586 27.44 56.882 27.44 56.902 27.44C56.9286 27.4333 56.9653 27.4267 57.012 27.42L57.122 28.04C57.0686 28.0667 57.0053 28.0867 56.932 28.1C56.8586 28.1133 56.7653 28.12 56.652 28.12ZM58.6508 28V23.14H59.4708V28H58.6508ZM59.0708 22.14C58.9108 22.14 58.7774 22.0933 58.6708 22C58.5708 21.9 58.5208 21.7667 58.5208 21.6C58.5208 21.44 58.5708 21.31 58.6708 21.21C58.7774 21.11 58.9108 21.06 59.0708 21.06C59.2308 21.06 59.3608 21.11 59.4608 21.21C59.5674 21.31 59.6208 21.44 59.6208 21.6C59.6208 21.7667 59.5674 21.9 59.4608 22C59.3608 22.0933 59.2308 22.14 59.0708 22.14ZM61.4317 28V23.14H62.1117L62.1817 23.84H62.2117C62.4251 23.6067 62.6584 23.4133 62.9117 23.26C63.1651 23.1 63.4351 23.02 63.7217 23.02C64.0951 23.02 64.3851 23.1033 64.5917 23.27C64.8051 23.43 64.9617 23.6567 65.0617 23.95C65.3151 23.6767 65.5717 23.4533 65.8317 23.28C66.0917 23.1067 66.3684 23.02 66.6617 23.02C67.1617 23.02 67.5317 23.1833 67.7717 23.51C68.0184 23.83 68.1417 24.3 68.1417 24.92V28H67.3217V25.03C67.3217 24.5767 67.2484 24.2467 67.1017 24.04C66.9551 23.8333 66.7284 23.73 66.4217 23.73C66.0617 23.73 65.6551 23.98 65.2017 24.48V28H64.3817V25.03C64.3817 24.5767 64.3084 24.2467 64.1617 24.04C64.0151 23.8333 63.7851 23.73 63.4717 23.73C63.1117 23.73 62.7051 23.98 62.2517 24.48V28H61.4317ZM70.0427 28V23.14H70.8627V28H70.0427ZM70.4627 22.14C70.3027 22.14 70.1694 22.0933 70.0627 22C69.9627 21.9 69.9127 21.7667 69.9127 21.6C69.9127 21.44 69.9627 21.31 70.0627 21.21C70.1694 21.11 70.3027 21.06 70.4627 21.06C70.6227 21.06 70.7527 21.11 70.8527 21.21C70.9594 21.31 71.0127 21.44 71.0127 21.6C71.0127 21.7667 70.9594 21.9 70.8527 22C70.7527 22.0933 70.6227 22.14 70.4627 22.14ZM76.1956 28L74.4456 23.14H75.2956L76.2156 25.9C76.289 26.14 76.3623 26.38 76.4356 26.62C76.5156 26.86 76.5923 27.0967 76.6656 27.33H76.7056C76.779 27.0967 76.8523 26.86 76.9256 26.62C77.0056 26.38 77.079 26.14 77.1456 25.9L78.0656 23.14H78.8756L77.1556 28H76.1956ZM81.0583 28.12C80.6516 28.12 80.3116 28 80.0383 27.76C79.7716 27.5133 79.6383 27.1733 79.6383 26.74C79.6383 26.2067 79.8749 25.8 80.3483 25.52C80.8283 25.2333 81.5849 25.0333 82.6183 24.92C82.6183 24.7133 82.5883 24.5167 82.5283 24.33C82.4749 24.1433 82.3749 23.9933 82.2283 23.88C82.0883 23.76 81.8849 23.7 81.6183 23.7C81.3383 23.7 81.0749 23.7533 80.8283 23.86C80.5816 23.9667 80.3616 24.0867 80.1683 24.22L79.8483 23.65C80.0749 23.5033 80.3516 23.3633 80.6783 23.23C81.0116 23.09 81.3716 23.02 81.7583 23.02C82.3516 23.02 82.7816 23.2033 83.0483 23.57C83.3149 23.93 83.4483 24.4133 83.4483 25.02V28H82.7683L82.6983 27.42H82.6683C82.4416 27.6067 82.1916 27.77 81.9183 27.91C81.6516 28.05 81.3649 28.12 81.0583 28.12ZM81.2983 27.46C81.5316 27.46 81.7516 27.4033 81.9583 27.29C82.1649 27.1767 82.3849 27.0167 82.6183 26.81V25.46C81.8116 25.56 81.2449 25.71 80.9183 25.91C80.5983 26.11 80.4383 26.3667 80.4383 26.68C80.4383 26.9533 80.5216 27.1533 80.6883 27.28C80.8549 27.4 81.0583 27.46 81.2983 27.46ZM84.7873 28V27.56L87.3473 23.81H85.0673V23.14H88.3873V23.58L85.8273 27.33H88.4673V28H84.7873ZM89.8654 28V23.14H90.6854V28H89.8654ZM90.2854 22.14C90.1254 22.14 89.9921 22.0933 89.8854 22C89.7854 21.9 89.7354 21.7667 89.7354 21.6C89.7354 21.44 89.7854 21.31 89.8854 21.21C89.9921 21.11 90.1254 21.06 90.2854 21.06C90.4454 21.06 90.5754 21.11 90.6754 21.21C90.7821 21.31 90.8354 21.44 90.8354 21.6C90.8354 21.7667 90.7821 21.9 90.6754 22C90.5754 22.0933 90.4454 22.14 90.2854 22.14ZM92.6463 28V23.14H93.3263L93.3963 24.02H93.4263C93.593 23.7133 93.7963 23.47 94.0363 23.29C94.2763 23.11 94.533 23.02 94.8063 23.02C94.9997 23.02 95.173 23.0533 95.3263 23.12L95.1663 23.84C95.0863 23.8133 95.013 23.7933 94.9463 23.78C94.8797 23.7667 94.7963 23.76 94.6963 23.76C94.4897 23.76 94.273 23.8433 94.0463 24.01C93.8263 24.1767 93.633 24.4667 93.4663 24.88V28H92.6463ZM97.3031 28.12C96.9965 28.12 96.7731 28.0267 96.6331 27.84C96.4998 27.6467 96.4331 27.3733 96.4331 27.02V20.88H97.2531V27.08C97.2531 27.2067 97.2765 27.3 97.3231 27.36C97.3698 27.4133 97.4231 27.44 97.4831 27.44C97.5098 27.44 97.5331 27.44 97.5531 27.44C97.5798 27.4333 97.6165 27.4267 97.6631 27.42L97.7731 28.04C97.7198 28.0667 97.6565 28.0867 97.5831 28.1C97.5098 28.1133 97.4165 28.12 97.3031 28.12ZM99.302 28V23.14H100.122V28H99.302ZM99.722 22.14C99.562 22.14 99.4286 22.0933 99.322 22C99.222 21.9 99.172 21.7667 99.172 21.6C99.172 21.44 99.222 21.31 99.322 21.21C99.4286 21.11 99.562 21.06 99.722 21.06C99.882 21.06 100.012 21.11 100.112 21.21C100.219 21.31 100.272 21.44 100.272 21.6C100.272 21.7667 100.219 21.9 100.112 22C100.012 22.0933 99.882 22.14 99.722 22.14ZM103.723 30.24C103.13 30.24 102.646 30.1267 102.273 29.9C101.9 29.6733 101.713 29.35 101.713 28.93C101.713 28.7233 101.776 28.5233 101.903 28.33C102.03 28.1433 102.203 27.9767 102.423 27.83V27.79C102.303 27.7167 102.2 27.6133 102.113 27.48C102.033 27.3467 101.993 27.1867 101.993 27C101.993 26.7933 102.05 26.6133 102.163 26.46C102.276 26.3067 102.396 26.1867 102.523 26.1V26.06C102.363 25.9267 102.216 25.7467 102.083 25.52C101.956 25.2933 101.893 25.0367 101.893 24.75C101.893 24.3967 101.976 24.09 102.143 23.83C102.31 23.57 102.533 23.37 102.813 23.23C103.093 23.09 103.396 23.02 103.723 23.02C103.856 23.02 103.983 23.0333 104.103 23.06C104.223 23.08 104.326 23.1067 104.413 23.14H106.103V23.77H105.103C105.216 23.8767 105.31 24.02 105.383 24.2C105.463 24.3733 105.503 24.5633 105.503 24.77C105.503 25.1167 105.423 25.4167 105.263 25.67C105.103 25.9233 104.89 26.12 104.623 26.26C104.356 26.3933 104.056 26.46 103.723 26.46C103.463 26.46 103.22 26.4033 102.993 26.29C102.906 26.3633 102.833 26.4467 102.773 26.54C102.713 26.6267 102.683 26.7367 102.683 26.87C102.683 27.0233 102.743 27.15 102.863 27.25C102.99 27.35 103.216 27.4 103.543 27.4H104.483C105.05 27.4 105.473 27.4933 105.753 27.68C106.04 27.86 106.183 28.1533 106.183 28.56C106.183 28.86 106.083 29.1367 105.883 29.39C105.683 29.6433 105.4 29.8467 105.033 30C104.666 30.16 104.23 30.24 103.723 30.24ZM103.723 25.91C104.003 25.91 104.243 25.8067 104.443 25.6C104.65 25.3867 104.753 25.1033 104.753 24.75C104.753 24.3967 104.653 24.12 104.453 23.92C104.253 23.72 104.01 23.62 103.723 23.62C103.436 23.62 103.193 23.72 102.993 23.92C102.793 24.12 102.693 24.3967 102.693 24.75C102.693 25.1033 102.793 25.3867 102.993 25.6C103.2 25.8067 103.443 25.91 103.723 25.91ZM103.843 29.67C104.31 29.67 104.683 29.5667 104.963 29.36C105.243 29.16 105.383 28.9333 105.383 28.68C105.383 28.4533 105.296 28.2967 105.123 28.21C104.956 28.1233 104.716 28.08 104.403 28.08H103.563C103.47 28.08 103.366 28.0733 103.253 28.06C103.146 28.0467 103.04 28.0267 102.933 28C102.76 28.1267 102.633 28.26 102.553 28.4C102.473 28.54 102.433 28.68 102.433 28.82C102.433 29.08 102.556 29.2867 102.803 29.44C103.056 29.5933 103.403 29.67 103.843 29.67ZM107.442 28V23.14H108.262V28H107.442ZM107.862 22.14C107.702 22.14 107.569 22.0933 107.462 22C107.362 21.9 107.312 21.7667 107.312 21.6C107.312 21.44 107.362 21.31 107.462 21.21C107.569 21.11 107.702 21.06 107.862 21.06C108.022 21.06 108.152 21.11 108.252 21.21C108.359 21.31 108.412 21.44 108.412 21.6C108.412 21.7667 108.359 21.9 108.252 22C108.152 22.0933 108.022 22.14 107.862 22.14Z" fill="black" fill-opacity="0.85"/>
</svg>
