<svg width="88" height="100" viewBox="0 0 88 100" fill="none" xmlns="http://www.w3.org/2000/svg">
<path d="M23.9931 30.4717C23.3787 30.7057 22.7513 30.9041 22.1141 31.0659C21.2723 31.2711 20.7971 31.3661 19.9847 31.0508C19.9561 31.0398 19.9289 31.0288 19.9032 31.018C18.3633 30.3633 17.0469 29.275 16.1143 27.8856C15.1817 26.4963 14.6732 24.8658 14.6505 23.1926C14.6464 23.1352 14.6464 23.0748 14.6464 23.016C14.6457 22.7324 14.6592 22.449 14.6871 22.1668C14.7227 21.7824 14.7842 21.4008 14.8711 21.0247L14.863 21.0232C14.2052 20.3506 13.9521 19.4292 14.036 18.5035C14.0935 17.8759 14.2927 17.2695 14.6186 16.73C14.9445 16.1906 15.3885 15.7321 15.9173 15.3892C16.746 14.8682 17.6805 14.5384 18.6526 14.4237C18.9137 14.3936 19.1762 14.3784 19.439 14.3781H21.9076C22.4175 14.2587 22.9355 14.1771 23.4573 14.1338H23.4614C28.4299 13.7217 32.3481 17.0155 31.9826 21.0232C31.9799 21.0276 31.9759 21.032 31.9732 21.0364C31.8676 21.2086 31.7742 21.372 31.6916 21.528C31.6118 21.6737 31.5441 21.8135 31.4859 21.946C31.0325 22.9703 33.1872 38.8633 32.4144 39.1046C31.9745 39.2415 30.2015 27.4151 30.5196 29.664C30.9202 32.4854 26.282 29.6256 23.9931 30.4717Z" fill="#2F2E41"/>
<path d="M31.4781 59.2014L38.3654 73.874L11.8716 71.1907L17.402 57.1052L31.4781 59.2014Z" fill="#FFB6B6"/>
<path d="M45.3039 88.6193C40.6967 90.1528 35.8416 90.8031 30.9933 90.5361L28.885 87.117C28.885 87.117 28.7968 88.3904 28.6651 90.337C26.3572 90.0696 24.0793 89.5867 21.8614 88.8946C17.6554 87.5794 13.7126 85.5414 9.71604 83.6621C8.90655 78.8365 8.60279 71.3955 13.0782 67.0637L37.167 71.4778C37.167 71.4778 41.0319 74.3686 39.998 75.4041C38.9641 76.438 38.804 76.2779 39.4833 76.9572C40.1626 77.6365 41.6305 78.5448 41.6454 79.1388C41.6514 79.3707 43.2988 83.5768 45.3039 88.6193Z" fill="#2F2E41"/>
<path d="M27.2714 30.8486L21.4516 31.2547L17.69 34.8895L16.3727 35.1246C15.1885 35.3358 14.123 35.9741 13.3782 36.9186C12.6333 37.863 12.261 39.048 12.3317 40.2488C12.6027 44.8398 13.2094 51.6995 14.4775 53.9251C16.4439 57.376 18.068 56.2933 16.4439 57.376C14.8197 58.4588 13.7293 57.608 14.4775 59.3192C15.2258 61.0303 13.4663 63.2252 13.4663 63.2252L12.7659 63.9256L13.5087 64.23L37.1796 67.3101C37.1796 67.3101 35.1328 58.1076 36.4128 55.847C37.6928 53.5864 40.7964 46.753 38.0265 44.0792L35.3182 34.5487L30.6597 33.1748L27.2714 30.8486Z" fill="#76CDD8"/>
<path d="M62.5014 68.6184C62.112 68.606 61.7298 68.5092 61.3814 68.3347C61.033 68.1601 60.7267 67.9119 60.4837 67.6073C60.2407 67.3028 60.0667 66.949 59.9738 66.5706C59.8809 66.1921 59.8713 65.798 59.9457 65.4155L48.8423 57.8958L50.1671 54.3132L63.2896 63.3409C63.9241 63.5141 64.4731 63.9139 64.8325 64.4648C65.1919 65.0156 65.3367 65.6792 65.2396 66.3297C65.1424 66.9802 64.81 67.5725 64.3054 67.9943C63.8007 68.4162 63.1589 68.6382 62.5014 68.6184V68.6184Z" fill="#FFB6B6"/>
<path d="M31.1393 34.0985L29.5259 34.7374L38.1328 51.5473L55.9505 63.6925L58.5189 59.3515L44.9558 47.6364L39.5258 37.2224C38.7617 35.7569 37.4815 34.6265 35.9327 34.0495C34.3838 33.4726 32.6761 33.4901 31.1393 34.0985Z" fill="#76CDD8"/>
<path d="M24.0587 29.3701C27.2862 29.3701 29.9026 26.7537 29.9026 23.5263C29.9026 20.2988 27.2862 17.6824 24.0587 17.6824C20.8312 17.6824 18.2148 20.2988 18.2148 23.5263C18.2148 26.7537 20.8312 29.3701 24.0587 29.3701Z" fill="#FFB6B6"/>
<path d="M29.1405 21.055C29.043 21.1065 28.9469 21.1538 28.8495 21.2012C28.748 21.2499 28.6465 21.2987 28.5436 21.3447C26.5879 22.2312 24.9949 22.33 24.0285 21.055C24.0021 20.3843 23.8511 19.7243 23.5833 19.1088C23.6306 19.7967 23.4493 20.4809 23.0676 21.055H21.1213C19.1169 22.3855 18.0883 23.6076 19.4796 27.9752C19.5703 28.2621 20.1915 38.4562 20.3688 39.2398C17.3344 38.0759 14.7169 25.7176 14.6506 22.4613C14.6465 22.4085 14.6465 22.353 14.6465 22.2988C14.6457 22.038 14.6593 21.7773 14.6871 21.5179C14.7228 21.1638 14.7843 20.8128 14.8712 20.4676L14.863 20.4663C14.5543 20.1711 14.3188 19.8079 14.1752 19.4057C14.0316 19.0034 13.984 18.5731 14.0361 18.1492C14.5451 17.4827 15.1751 16.918 15.893 16.4845C16.5458 16.1684 17.2263 15.9128 17.9259 15.7211C17.9435 15.7171 17.9584 15.713 17.976 15.709C18.1898 15.6508 18.4091 15.598 18.6283 15.552C19.0802 15.4572 19.537 15.3881 19.9966 15.3449C20.0305 15.3435 20.063 15.3408 20.0927 15.3408C20.2766 15.3409 20.457 15.3905 20.6152 15.4843C20.6165 15.4843 20.6165 15.4856 20.6192 15.4856C20.7712 15.5764 20.8972 15.7048 20.9851 15.8584C21.0731 16.012 21.12 16.1857 21.1213 16.3627H23.2896C23.3694 16.3627 23.4493 16.3654 23.5291 16.3694C26.5486 16.4899 28.9754 17.7811 29.131 20.7492C29.1378 20.852 29.1405 20.9522 29.1405 21.055Z" fill="#2F2E41"/>
<path d="M16.3217 21.2901C18.448 21.2901 20.1717 19.5664 20.1717 17.4401C20.1717 15.3138 18.448 13.5901 16.3217 13.5901C14.1954 13.5901 12.4717 15.3138 12.4717 17.4401C12.4717 19.5664 14.1954 21.2901 16.3217 21.2901Z" fill="#2F2E41"/>
<path d="M21.6075 15.6593C21.1702 17.7401 19.0122 18.9846 16.9478 18.4755C15.9564 18.231 15.1027 17.6028 14.5746 16.7289C14.0464 15.855 13.887 14.8071 14.1315 13.8157C14.6406 11.7513 17.1461 12.3464 18.7913 10.9995C21.1187 9.09402 22.1974 12.8531 21.6075 15.6593Z" fill="#2F2E41"/>
<path d="M13.0534 73.5811C16.3347 60.2002 22.8362 48.699 33.6036 39.688C34.0203 39.0025 34.6919 38.5102 35.4711 38.3193C36.2503 38.1283 37.0734 38.2542 37.7599 38.6694L63.3567 54.1893C64.0422 54.606 64.5345 55.2776 64.7254 56.0568C64.9164 56.836 64.7905 57.6591 64.3753 58.3456C60.2655 72.0759 54.1101 83.9902 43.8251 92.2387C43.4084 92.9243 42.7368 93.4165 41.9576 93.6075C41.1785 93.7984 40.3553 93.6725 39.6689 93.2574L14.072 77.7374C13.3865 77.3207 12.8943 76.6491 12.7033 75.8699C12.5123 75.0907 12.6382 74.2676 13.0534 73.5811Z" fill="#F2F2F2"/>
<path opacity="0.2" d="M17.603 78.0907C16.9174 77.674 16.4252 77.0024 16.2342 76.2232C16.0433 75.444 16.1692 74.6209 16.5843 73.9344C19.8656 60.5534 26.3672 49.0523 37.1345 40.0413C37.4104 39.5925 37.7998 39.2246 38.2635 38.9748L37.7598 38.6694C37.0734 38.2542 36.2503 38.1283 35.4711 38.3193C34.6919 38.5102 34.0203 39.0024 33.6036 39.6879C22.8362 48.699 16.3347 60.2001 13.0534 73.5811C12.6382 74.2676 12.5123 75.0907 12.7033 75.8699C12.8943 76.649 13.3865 77.3207 14.072 77.7374L39.6688 93.2573C40.1244 93.5315 40.6444 93.6803 41.176 93.6887C41.7076 93.6971 42.232 93.5648 42.6961 93.3053L17.603 78.0907Z" fill="black"/>
<path d="M47.6213 70.6147L30.4395 60.262C30.1665 60.0971 29.9702 59.8305 29.8936 59.5209C29.817 59.2113 29.8665 58.8839 30.0311 58.6108C30.1957 58.3376 30.462 58.1409 30.7715 58.0639C31.081 57.9869 31.4084 58.0359 31.6818 58.2002L48.8636 68.5529C49.1359 68.7181 49.3316 68.9846 49.4078 69.2939C49.484 69.6032 49.4344 69.9301 49.27 70.2029C49.1056 70.4758 48.8398 70.6723 48.5307 70.7495C48.2217 70.8267 47.8946 70.7782 47.6213 70.6147L47.6213 70.6147Z" fill="white"/>
<path d="M37.6259 56.8861L33.8459 54.6085C33.572 54.4447 33.3744 54.1787 33.2966 53.8691C33.2188 53.5595 33.2671 53.2317 33.431 52.9578C33.5949 52.6838 33.8608 52.4862 34.1704 52.4084C34.48 52.3306 34.8078 52.3789 35.0818 52.5428L35.0883 52.5467L38.8682 54.8243C39.1406 54.9896 39.3364 55.256 39.4126 55.5654C39.4888 55.8747 39.4393 56.2016 39.2749 56.4745C39.1105 56.7474 38.8446 56.944 38.5355 57.0211C38.2264 57.0983 37.8993 57.0497 37.6259 56.8861Z" fill="white"/>
<path d="M44.8904 75.1469L27.7086 64.7942C27.4354 64.6296 27.2386 64.3633 27.1616 64.0537C27.0846 63.7442 27.1336 63.4167 27.2979 63.1432C27.4622 62.8698 27.7284 62.6728 28.0379 62.5955C28.3474 62.5181 28.6749 62.5669 28.9485 62.7309L28.9509 62.7324L46.1327 73.085C46.405 73.2503 46.6007 73.5168 46.6769 73.8261C46.7531 74.1354 46.7035 74.4623 46.5391 74.7351C46.3747 75.008 46.1089 75.2045 45.7999 75.2817C45.4908 75.3589 45.1638 75.3104 44.8904 75.1469L44.8904 75.1469Z" fill="white"/>
<path d="M49.8031 51.0945C52.5747 51.0945 54.8216 48.8477 54.8216 46.0761C54.8216 43.3045 52.5747 41.0576 49.8031 41.0576C47.0315 41.0576 44.7847 43.3045 44.7847 46.0761C44.7847 48.8477 47.0315 51.0945 49.8031 51.0945Z" fill="#3F3D56"/>
<path d="M41.1529 99.8503C47.0768 99.8503 51.8791 95.048 51.8791 89.1241C51.8791 83.2002 47.0768 78.3979 41.1529 78.3979C35.229 78.3979 30.4268 83.2002 30.4268 89.1241C30.4268 95.048 35.229 99.8503 41.1529 99.8503Z" fill="white"/>
<path d="M41.1527 99.9999C39.0016 99.9999 36.8989 99.3621 35.1104 98.167C33.3219 96.972 31.9279 95.2734 31.1047 93.2861C30.2816 91.2988 30.0662 89.1121 30.4858 87.0024C30.9055 84.8927 31.9413 82.9548 33.4623 81.4338C34.9833 79.9128 36.9212 78.8769 39.0309 78.4573C41.1406 78.0376 43.3273 78.253 45.3146 79.0761C47.3019 79.8993 49.0005 81.2933 50.1955 83.0818C51.3906 84.8703 52.0285 86.973 52.0285 89.124C52.0252 92.0075 50.8783 94.7719 48.8394 96.8108C46.8005 98.8497 44.0361 99.9966 41.1527 99.9999ZM41.1527 78.5475C39.0608 78.5475 37.016 79.1679 35.2766 80.33C33.5373 81.4922 32.1817 83.144 31.3812 85.0766C30.5807 87.0093 30.3712 89.1359 30.7793 91.1875C31.1875 93.2392 32.1948 95.1237 33.6739 96.6029C35.1531 98.082 37.0377 99.0893 39.0893 99.4974C41.141 99.9055 43.2676 99.6961 45.2002 98.8955C47.1328 98.095 48.7846 96.7394 49.9468 95.0001C51.1089 93.2608 51.7292 91.2159 51.7292 89.124C51.726 86.3199 50.6107 83.6316 48.6279 81.6488C46.6451 79.666 43.9568 78.5507 41.1527 78.5475Z" fill="#3F3D56"/>
<path d="M39.6897 94.7067C39.5045 94.7067 39.3218 94.6635 39.1562 94.5807C38.9905 94.4978 38.8464 94.3775 38.7353 94.2293L35.809 90.3276C35.7149 90.2022 35.6463 90.0595 35.6073 89.9077C35.5683 89.7559 35.5596 89.5978 35.5817 89.4426C35.6039 89.2874 35.6563 89.1381 35.7362 89.0032C35.816 88.8683 35.9217 88.7504 36.0471 88.6564C36.1725 88.5623 36.3152 88.4939 36.4671 88.455C36.619 88.4162 36.777 88.4076 36.9322 88.4298C37.0874 88.4521 37.2367 88.5047 37.3715 88.5847C37.5064 88.6646 37.6241 88.7704 37.7181 88.8959L39.6325 91.4483L44.5496 84.0728C44.6365 83.9424 44.7482 83.8305 44.8784 83.7433C45.0086 83.6561 45.1547 83.5954 45.3084 83.5647C45.462 83.5339 45.6202 83.5338 45.7739 83.5642C45.9276 83.5946 46.0738 83.655 46.2042 83.7419C46.3346 83.8288 46.4465 83.9406 46.5337 84.0707C46.6209 84.2009 46.6816 84.347 46.7123 84.5007C46.7431 84.6543 46.7432 84.8125 46.7128 84.9662C46.6824 85.1199 46.622 85.2661 46.5351 85.3965L40.6826 94.1753C40.5767 94.3341 40.4343 94.4651 40.2674 94.5575C40.1004 94.6499 39.9137 94.7009 39.7229 94.7063C39.7119 94.7065 39.7008 94.7067 39.6897 94.7067Z" fill="#76CDD8"/>
<path d="M75.7932 34.7688C76.2195 34.7323 76.5445 34.4624 76.5191 34.1659C76.4938 33.8694 76.1277 33.6586 75.7014 33.695C75.2752 33.7314 74.9502 34.0014 74.9756 34.2979C75.0009 34.5944 75.367 34.8052 75.7932 34.7688Z" fill="white"/>
<path d="M80.5887 33.142C81.0149 33.1056 81.3399 32.8357 81.3145 32.5392C81.2892 32.2427 80.9231 32.0318 80.4968 32.0683C80.0706 32.1047 79.7457 32.3746 79.771 32.6712C79.7964 32.9677 80.1624 33.1785 80.5887 33.142Z" fill="#3F3D56"/>
<path d="M73.5198 31.1101C73.9461 31.0736 74.271 30.8037 74.2457 30.5072C74.2203 30.2107 73.8542 29.9999 73.428 30.0363C73.0018 30.0728 72.6768 30.3427 72.7022 30.6392C72.7275 30.9357 73.0936 31.1465 73.5198 31.1101Z" fill="#FF6584"/>
<path d="M71.5084 29.931C71.6919 29.8895 71.7923 29.6421 71.7327 29.3784C71.6731 29.1147 71.4761 28.9345 71.2926 28.976C71.1092 29.0174 71.0088 29.2648 71.0683 29.5285C71.1279 29.7922 71.325 29.9724 71.5084 29.931Z" fill="#E6E6E6"/>
<path d="M70.0763 27.0689C70.2597 27.0274 70.3601 26.7801 70.3005 26.5163C70.241 26.2526 70.0439 26.0725 69.8605 26.1139C69.677 26.1554 69.5766 26.4027 69.6362 26.6665C69.6958 26.9302 69.8928 27.1103 70.0763 27.0689Z" fill="#3F3D56"/>
<path d="M76.9478 31.0884C77.1313 31.047 77.2317 30.7996 77.1721 30.5359C77.1125 30.2722 76.9155 30.092 76.7321 30.1334C76.5486 30.1749 76.4482 30.4223 76.5078 30.686C76.5674 30.9497 76.7644 31.1299 76.9478 31.0884Z" fill="#E6E6E6"/>
<path d="M74.8531 32.8272C75.0366 32.7857 75.137 32.5384 75.0774 32.2746C75.0178 32.0109 74.8208 31.8308 74.6373 31.8722C74.4539 31.9137 74.3535 32.161 74.4131 32.4248C74.4727 32.6885 74.6697 32.8686 74.8531 32.8272Z" fill="#FF6584"/>
<path d="M78.6661 34.2435C78.8496 34.202 78.95 33.9546 78.8904 33.6909C78.8308 33.4272 78.6338 33.247 78.4503 33.2885C78.2669 33.3299 78.1665 33.5773 78.2261 33.841C78.2856 34.1047 78.4827 34.2849 78.6661 34.2435Z" fill="#3F3D56"/>
<path d="M55.9934 12.5977C56.0665 12.3093 55.7896 11.9902 55.3749 11.8851C54.9603 11.78 54.5648 11.9287 54.4917 12.2172C54.4186 12.5057 54.6955 12.8247 55.1102 12.9298C55.5249 13.0349 55.9203 12.8862 55.9934 12.5977Z" fill="white"/>
<path d="M50.9295 12.565C51.0026 12.2765 50.7257 11.9575 50.311 11.8524C49.8963 11.7473 49.5009 11.896 49.4278 12.1845C49.3547 12.4729 49.6316 12.792 50.0462 12.8971C50.4609 13.0022 50.8563 12.8535 50.9295 12.565Z" fill="#3F3D56"/>
<path d="M56.9436 16.7992C57.0167 16.5107 56.7398 16.1916 56.3251 16.0866C55.9105 15.9815 55.515 16.1301 55.4419 16.4186C55.3688 16.7071 55.6457 17.0261 56.0604 17.1312C56.4751 17.2363 56.8705 17.0876 56.9436 16.7992Z" fill="#FF6584"/>
<path d="M58.1243 18.3833C58.1543 18.1146 58.0271 17.8799 57.8402 17.859C57.6533 17.8381 57.4774 18.039 57.4474 18.3077C57.4174 18.5764 57.5446 18.8111 57.7315 18.832C57.9184 18.8529 58.0943 18.652 58.1243 18.3833Z" fill="#E6E6E6"/>
<path d="M58.5408 21.5567C58.5708 21.288 58.4436 21.0532 58.2567 21.0323C58.0698 21.0115 57.894 21.2123 57.8639 21.481C57.8339 21.7497 57.9611 21.9845 58.148 22.0053C58.3349 22.0262 58.5108 21.8253 58.5408 21.5567Z" fill="#3F3D56"/>
<path d="M53.3636 15.5093C53.3936 15.2406 53.2664 15.0059 53.0795 14.985C52.8926 14.9641 52.7167 15.165 52.6867 15.4337C52.6567 15.7024 52.7838 15.9371 52.9708 15.958C53.1577 15.9789 53.3335 15.778 53.3636 15.5093Z" fill="#E6E6E6"/>
<path d="M55.9119 14.5518C55.9419 14.2831 55.8147 14.0483 55.6278 14.0275C55.4409 14.0066 55.265 14.2075 55.235 14.4761C55.205 14.7448 55.3322 14.9796 55.5191 15.0005C55.706 15.0213 55.8819 14.8205 55.9119 14.5518Z" fill="#FF6584"/>
<path d="M52.7722 11.9654C52.8023 11.6967 52.6751 11.4619 52.4882 11.441C52.3013 11.4202 52.1254 11.621 52.0954 11.8897C52.0654 12.1584 52.1925 12.3932 52.3795 12.414C52.5664 12.4349 52.7422 12.234 52.7722 11.9654Z" fill="#3F3D56"/>
<path d="M14.6491 73.7228C14.2666 73.5661 13.9228 73.3281 13.6413 73.0255C13.3598 72.7228 13.1475 72.3626 13.0189 71.9698C12.8903 71.577 12.8486 71.1609 12.8967 70.7504C12.9447 70.3398 13.0813 69.9447 13.2971 69.5921L5.05176 58.0017L7.69693 54.9329L17.3894 68.7706C17.9558 69.1779 18.353 69.7789 18.5059 70.4596C18.6588 71.1403 18.5567 71.8534 18.2189 72.4639C17.8811 73.0743 17.3311 73.5396 16.6732 73.7716C16.0152 74.0036 15.2951 73.9863 14.6491 73.7228H14.6491Z" fill="#FFB6B6"/>
<path d="M14.8386 36.9932C14.4214 36.7478 13.9305 36.6591 13.4538 36.743C12.9771 36.8269 12.546 37.078 12.2377 37.4511L1.09717 53.0318L11.4216 67.6955L15.4616 63.3562L9.17715 53.4807L17.5292 45.5286C18.2155 44.025 18.3204 42.3204 17.8235 40.7441C17.3265 39.1677 16.2631 37.8314 14.8386 36.9932Z" fill="#76CDD8"/>
</svg>
