<svg width="128" height="100" viewBox="0 0 128 100" fill="none" xmlns="http://www.w3.org/2000/svg">
<g clip-path="url(#clip0_188_1585)">
<path d="M116.255 91.2896C113.813 93.9037 111.015 96.1609 107.944 97.9945C107.874 98.0378 107.802 98.0785 107.73 98.1205L102.758 93.7197C102.81 93.6712 102.868 93.6167 102.93 93.5569C106.635 90.039 125.027 65.4423 126.253 59.4526C126.168 59.9516 127.359 79.5205 116.255 91.2896Z" fill="#F0F0F0"/>
<path d="M108.903 98.8434C108.809 98.8658 108.713 98.8868 108.617 98.906L104.887 95.6044C104.96 95.579 105.045 95.5487 105.143 95.5152C106.743 94.9485 111.51 93.2376 116.254 91.289C121.351 89.1943 126.424 86.8276 127.515 85.3115C127.281 85.6638 120.072 96.3459 108.903 98.8434Z" fill="#F0F0F0"/>
<path d="M116.186 26.1897H115.654V11.6371C115.654 10.531 115.436 9.43572 115.013 8.41383C114.59 7.39194 113.969 6.46343 113.187 5.68131C112.405 4.89919 111.477 4.27878 110.455 3.8555C109.433 3.43221 108.338 3.21436 107.232 3.21436H76.3998C75.2937 3.21435 74.1984 3.43221 73.1765 3.85549C72.1546 4.27877 71.2261 4.89918 70.444 5.68129C69.6619 6.46341 69.0415 7.39192 68.6182 8.41381C68.1949 9.43569 67.9771 10.5309 67.9771 11.637V91.4742C67.977 92.5803 68.1949 93.6755 68.6182 94.6974C69.0415 95.7193 69.6619 96.6478 70.444 97.43C71.2261 98.2121 72.1546 98.8325 73.1765 99.2558C74.1984 99.679 75.2937 99.8969 76.3997 99.8969H107.232C108.338 99.8969 109.433 99.679 110.455 99.2558C111.477 98.8325 112.405 98.2121 113.187 97.43C113.969 96.6479 114.59 95.7193 115.013 94.6975C115.436 93.6756 115.654 92.5803 115.654 91.4742V36.5486H116.186V26.1897Z" fill="#3F3D56"/>
<path d="M113.862 11.6949V91.4159C113.862 92.2419 113.699 93.0599 113.383 93.823C113.067 94.5861 112.603 95.2795 112.019 95.8635C111.435 96.4474 110.741 96.9106 109.978 97.2265C109.215 97.5424 108.397 97.7049 107.571 97.7046H76.5905C75.7646 97.7046 74.9468 97.542 74.1838 97.226C73.4208 96.91 72.7275 96.4468 72.1436 95.8628C71.5596 95.2788 71.0964 94.5855 70.7803 93.8225C70.4643 93.0595 70.3017 92.2417 70.3018 91.4159V11.6949C70.3017 10.8691 70.4643 10.0513 70.7803 9.28828C71.0964 8.52528 71.5596 7.83199 72.1436 7.24802C72.7275 6.66405 73.4208 6.20083 74.1838 5.88482C74.9468 5.56881 75.7646 5.40619 76.5905 5.40625H80.3501C80.1655 5.86002 80.0953 6.3522 80.1456 6.83947C80.1959 7.32675 80.3652 7.7942 80.6385 8.20072C80.9118 8.60724 81.2808 8.94038 81.7131 9.17082C82.1454 9.40126 82.6277 9.52195 83.1175 9.52227H100.78C101.27 9.52274 101.753 9.40256 102.186 9.17233C102.619 8.94211 102.988 8.60892 103.262 8.20217C103.535 7.79542 103.704 7.3276 103.754 6.84C103.804 6.3524 103.733 5.86 103.548 5.40625H107.571C108.397 5.40595 109.215 5.56839 109.978 5.88429C110.741 6.2002 111.435 6.66337 112.019 7.24736C112.603 7.83135 113.067 8.52471 113.383 9.28783C113.699 10.051 113.862 10.8689 113.862 11.6949V11.6949Z" fill="white"/>
<path d="M104.225 53.1221H76.9938C76.5169 53.1216 76.0596 52.9318 75.7223 52.5946C75.3851 52.2573 75.1954 51.8001 75.1948 51.3231V50.4277C75.1954 49.9507 75.3851 49.4934 75.7223 49.1562C76.0596 48.8189 76.5169 48.6292 76.9938 48.6287H104.225C104.701 48.6292 105.159 48.8189 105.496 49.1562C105.833 49.4934 106.023 49.9507 106.024 50.4277V51.3231C106.023 51.8001 105.833 52.2573 105.496 52.5946C105.159 52.9318 104.701 53.1216 104.225 53.1221Z" fill="#F0F0F0"/>
<path d="M104.225 60.8411H76.9938C76.5169 60.8406 76.0596 60.6508 75.7223 60.3136C75.3851 59.9763 75.1954 59.5191 75.1948 59.0421V58.1466C75.1954 57.6697 75.3851 57.2124 75.7223 56.8752C76.0596 56.5379 76.5169 56.3482 76.9938 56.3477H104.225C104.701 56.3482 105.159 56.5379 105.496 56.8752C105.833 57.2124 106.023 57.6697 106.024 58.1466V59.0421C106.023 59.5191 105.833 59.9763 105.496 60.3136C105.159 60.6508 104.701 60.8406 104.225 60.8411V60.8411Z" fill="#F0F0F0"/>
<path d="M105.587 51.3957H78.3562C77.8554 51.3952 77.3753 51.196 77.0212 50.8419C76.667 50.4877 76.4679 50.0076 76.4673 49.5068V48.6114C76.4679 48.1105 76.667 47.6304 77.0212 47.2763C77.3753 46.9222 77.8554 46.723 78.3562 46.7224H105.587C106.088 46.723 106.568 46.9222 106.922 47.2763C107.276 47.6304 107.475 48.1105 107.476 48.6114V49.5068C107.475 50.0076 107.276 50.4877 106.922 50.8419C106.568 51.196 106.088 51.3952 105.587 51.3957V51.3957ZM78.3562 47.0822C77.9508 47.0827 77.5621 47.2439 77.2755 47.5306C76.9888 47.8173 76.8275 48.2059 76.8271 48.6114V49.5068C76.8275 49.9122 76.9888 50.3009 77.2755 50.5876C77.5621 50.8742 77.9508 51.0355 78.3562 51.0359H105.587C105.992 51.0355 106.381 50.8742 106.668 50.5876C106.954 50.3009 107.116 49.9122 107.116 49.5068V48.6114C107.116 48.2059 106.954 47.8173 106.668 47.5306C106.381 47.2439 105.992 47.0827 105.587 47.0822H78.3562Z" fill="#3F3D56"/>
<path d="M105.587 59.1147H78.3562C77.8554 59.1142 77.3753 58.915 77.0212 58.5609C76.667 58.2067 76.4679 57.7266 76.4673 57.2258V56.3303C76.4679 55.8295 76.667 55.3494 77.0212 54.9953C77.3753 54.6412 77.8554 54.442 78.3562 54.4414H105.587C106.088 54.442 106.568 54.6412 106.922 54.9953C107.276 55.3494 107.475 55.8295 107.476 56.3303V57.2258C107.475 57.7266 107.276 58.2067 106.922 58.5609C106.568 58.915 106.088 59.1142 105.587 59.1147V59.1147ZM78.3562 54.8012C77.9508 54.8017 77.5621 54.9629 77.2755 55.2496C76.9888 55.5363 76.8275 55.9249 76.8271 56.3303V57.2258C76.8275 57.6312 76.9888 58.0199 77.2755 58.3066C77.5621 58.5932 77.9508 58.7545 78.3562 58.7549H105.587C105.992 58.7545 106.381 58.5932 106.668 58.3066C106.954 58.0199 107.116 57.6312 107.116 57.2258V56.3303C107.116 55.9249 106.954 55.5363 106.668 55.2496C106.381 54.9629 105.992 54.8017 105.587 54.8012H78.3562Z" fill="#3F3D56"/>
<path d="M113.861 11.6949V29.0354C111.106 29.7602 108.221 29.8434 105.429 29.2785C102.636 28.7135 100.01 27.5155 97.7536 25.7766C95.4967 24.0376 93.6688 21.8042 92.4106 19.248C91.1523 16.6918 90.4972 13.8811 90.4956 11.032C90.4956 10.5235 90.516 10.0202 90.5569 9.52227H100.78C101.27 9.52274 101.753 9.40256 102.186 9.17233C102.618 8.94211 102.988 8.60892 103.261 8.20217C103.535 7.79542 103.704 7.3276 103.754 6.84C103.804 6.3524 103.733 5.86 103.548 5.40625H107.57C108.396 5.40595 109.214 5.56839 109.978 5.88429C110.741 6.2002 111.434 6.66337 112.019 7.24736C112.603 7.83135 113.066 8.52471 113.382 9.28783C113.699 10.051 113.861 10.8689 113.861 11.6949V11.6949Z" fill="#F0F0F0"/>
<path d="M85.9554 96.6217C85.9554 96.9872 85.9418 97.3482 85.9123 97.7046H76.5905C75.7646 97.7047 74.9468 97.542 74.1838 97.226C73.4208 96.91 72.7275 96.4468 72.1436 95.8628C71.5596 95.2789 71.0964 94.5856 70.7803 93.8226C70.4643 93.0596 70.3017 92.2418 70.3018 91.4159V82.8887C72.2557 82.6346 74.2414 82.7999 76.1265 83.3735C78.0116 83.9472 79.7528 84.916 81.234 86.2155C82.7152 87.5149 83.9024 89.1152 84.7166 90.9096C85.5307 92.7039 85.953 94.6512 85.9554 96.6217H85.9554Z" fill="#76CDD8"/>
<path d="M10.7717 81.6594C11.0337 81.7746 11.3306 81.7812 11.5974 81.6778C11.8642 81.5744 12.0791 81.3693 12.1949 81.1077L20.5925 62.0754C20.7847 61.6399 20.8434 61.1572 20.7612 60.6882C20.6791 60.2193 20.4597 59.7853 20.1308 59.4411C19.802 59.0968 19.3784 58.8579 18.9137 58.7544C18.4491 58.6509 17.9641 58.6875 17.5203 58.8596H17.5202C17.0074 59.0554 16.5783 59.4229 16.3059 59.8994C16.2626 59.9748 16.2233 60.0525 16.1882 60.1321L7.79061 79.1643C7.73338 79.294 7.70226 79.4337 7.69901 79.5754C7.69577 79.7171 7.72048 79.8581 7.77172 79.9902C7.82296 80.1224 7.89974 80.2432 7.99766 80.3457C8.09559 80.4482 8.21274 80.5304 8.34243 80.5876L10.7717 81.6594Z" fill="#76CDD8"/>
<path d="M20.2477 69.8892L11.9414 68.0433L13.9973 62.6046C14.3475 61.2753 15.1626 60.1156 16.2947 59.3357C17.4267 58.5559 18.8008 58.2076 20.1676 58.354L20.2477 58.3629L20.2477 69.8892Z" fill="#1A2B3B"/>
<path d="M37.0254 81.9317C36.7811 81.9313 36.5421 81.8601 36.3374 81.7268C36.1327 81.5934 35.971 81.4036 35.8719 81.1803L27.4744 62.1481C27.2073 61.5425 27.1825 60.8576 27.405 60.2343C27.6275 59.611 28.0805 59.0967 28.6706 58.7972C29.2608 58.4977 29.9433 58.4357 30.5778 58.6241C31.2123 58.8125 31.7504 59.2369 32.0815 59.8099V59.8098C32.128 59.8908 32.1702 59.9741 32.2079 60.0596L40.6054 79.0918C40.7402 79.3974 40.7482 79.744 40.6274 80.0554C40.5067 80.3668 40.2672 80.6174 39.9616 80.7523L37.45 81.8604L37.4487 81.8576C37.313 81.9066 37.1697 81.9316 37.0254 81.9317V81.9317Z" fill="#76CDD8"/>
<path d="M25.409 75.3962C25.1228 75.3966 24.8484 75.5104 24.6461 75.7127C24.4437 75.9151 24.3299 76.1895 24.3296 76.4756V98.6058C24.3299 98.8919 24.4437 99.1663 24.6461 99.3686C24.8484 99.571 25.1228 99.6848 25.409 99.6852H28.0642C28.3504 99.6848 28.6247 99.571 28.8271 99.3686C29.0295 99.1663 29.1433 98.8919 29.1436 98.6058V76.4756C29.1433 76.1895 29.0295 75.9151 28.8271 75.7127C28.6247 75.5104 28.3504 75.3966 28.0642 75.3962H25.409Z" fill="#76CDD8"/>
<path d="M20.1575 75.3962C19.8713 75.3966 19.597 75.5104 19.3946 75.7127C19.1923 75.9151 19.0784 76.1895 19.0781 76.4756V98.6058C19.0784 98.8919 19.1923 99.1663 19.3946 99.3686C19.597 99.571 19.8713 99.6848 20.1575 99.6852H22.8128C23.099 99.6848 23.3733 99.571 23.5757 99.3686C23.778 99.1663 23.8919 98.8919 23.8922 98.6058V76.4756C23.8919 76.1895 23.778 75.9151 23.5757 75.7127C23.3733 75.5104 23.099 75.3966 22.8128 75.3962H20.1575Z" fill="#76CDD8"/>
<path d="M24.0318 52.211C29.0989 52.211 33.2066 48.1033 33.2066 43.0362C33.2066 37.969 29.0989 33.8613 24.0318 33.8613C18.9647 33.8613 14.8569 37.969 14.8569 43.0362C14.8569 48.1033 18.9647 52.211 24.0318 52.211Z" fill="#76CDD8"/>
<path d="M27.0847 46.8876C27.6794 46.8711 28.4196 46.8504 28.9898 46.4339C29.1596 46.3048 29.2992 46.1401 29.3986 45.9514C29.498 45.7627 29.555 45.5545 29.5655 45.3414C29.5758 45.19 29.551 45.0383 29.4929 44.898C29.4349 44.7578 29.3452 44.6329 29.2309 44.5331C28.933 44.2814 28.4981 44.2224 28.0295 44.3601L28.515 40.8115L28.1586 40.7627L27.5877 44.9345L27.8854 44.7979C28.2305 44.6397 28.7042 44.5591 28.9986 44.8079C29.0709 44.8729 29.1272 44.9537 29.1632 45.0441C29.1991 45.1344 29.2138 45.2318 29.206 45.3288C29.1973 45.4873 29.1545 45.6422 29.0806 45.7827C29.0066 45.9233 28.9033 46.0463 28.7776 46.1433C28.3338 46.4675 27.7439 46.5093 27.0747 46.528L27.0847 46.8876Z" fill="#1A2B3B"/>
<path d="M32.2156 41.1177H30.2778V41.4775H32.2156V41.1177Z" fill="#1A2B3B"/>
<path d="M26.0994 41.1177H24.1616V41.4775H26.0994V41.1177Z" fill="#1A2B3B"/>
<path d="M33.1224 82.0436L29.8202 57.9371C29.7848 57.6787 29.6569 57.4417 29.4603 57.2702C29.2637 57.0987 29.0116 57.0042 28.7507 57.0042H26.2582C26.2685 56.9448 26.2739 56.8847 26.2743 56.8243V55.9249C26.2743 55.6386 26.1606 55.364 25.9582 55.1616C25.7557 54.9592 25.4812 54.8455 25.1949 54.8455H23.0361C22.7499 54.8455 22.4753 54.9592 22.2729 55.1616C22.0705 55.364 21.9567 55.6386 21.9567 55.9249V56.8243C21.9571 56.8847 21.9625 56.9448 21.9729 57.0042H19.4803C19.2194 57.0043 18.9673 57.0987 18.7707 57.2702C18.5741 57.4418 18.4463 57.6787 18.4108 57.9371L15.1086 82.0436C15.0877 82.1963 15.0997 82.3517 15.1439 82.4994C15.188 82.647 15.2633 82.7835 15.3646 82.8997C15.4659 83.0158 15.591 83.1089 15.7313 83.1727C15.8715 83.2365 16.0239 83.2695 16.178 83.2695H32.053C32.2072 83.2695 32.3595 83.2365 32.4998 83.1727C32.6401 83.1089 32.7651 83.0158 32.8664 82.8997C32.9677 82.7835 33.043 82.647 33.0872 82.4994C33.1313 82.3517 33.1433 82.1963 33.1224 82.0436V82.0436Z" fill="#1A2B3B"/>
<path d="M27.9834 69.8891V58.3628L28.0634 58.3539C29.4319 58.2076 30.8076 58.557 31.9403 59.3387C33.0731 60.1204 33.8879 61.2825 34.2367 62.6139L36.2896 68.0432L27.9834 69.8891Z" fill="#1A2B3B"/>
<path d="M23.5698 52.4974L17.2238 50.0342C16.1861 49.6314 15.1426 49.2409 14.1104 48.8243C13.6682 48.6702 13.2609 48.4301 12.912 48.118C12.6082 47.7963 12.4011 47.3956 12.3145 46.9617C12.0944 46.0314 12.1342 45.0143 12.1499 44.0649C12.1621 43.0263 12.2476 41.9899 12.4057 40.9634C12.6828 39.0343 13.3336 37.1778 14.3216 35.4979C16.1013 32.5779 19.1676 30.381 22.6947 30.5563C24.3276 30.6375 25.9698 31.2234 27.183 32.3398C27.3096 32.4911 27.4516 32.6287 27.6067 32.7504C27.7145 32.7909 27.8319 32.7987 27.9441 32.7731C28.0922 32.7636 28.2404 32.7563 28.3887 32.7513C28.9032 32.7296 29.4187 32.7512 29.9296 32.8159C30.8607 32.9165 31.7431 33.2829 32.4716 33.8714C33.0779 34.393 33.5712 35.1292 33.622 35.9474C33.6465 36.3231 33.5844 36.6993 33.4405 37.0471C33.2965 37.3949 33.0746 37.705 32.7919 37.9534C32.0348 38.5915 30.9545 38.3672 30.0464 38.3191L26.7194 38.1429L25.0337 38.0536C24.6866 38.0352 24.6876 38.5749 25.0337 38.5933L29.514 38.8306C30.234 38.8688 30.9761 38.9622 31.6967 38.9191C32.2503 38.894 32.779 38.6813 33.1958 38.316C33.5764 37.9663 33.86 37.524 34.0188 37.0321C34.1776 36.5402 34.2062 36.0156 34.1019 35.5094C33.8709 34.4052 33.0491 33.4918 32.0858 32.9485C30.775 32.2091 29.2096 32.1383 27.7429 32.2476L27.9337 32.3266C26.2746 30.5459 23.7333 29.7941 21.3476 30.0572C18.8286 30.335 16.5881 31.7403 14.9784 33.662C13.1837 35.8045 12.2056 38.476 11.8254 41.2231C11.6275 42.7063 11.5624 44.2042 11.6308 45.6989C11.6279 46.3581 11.7407 47.0128 11.964 47.633C12.2187 48.2367 12.6793 48.7305 13.2638 49.0265C13.9339 49.35 14.6228 49.6331 15.3268 49.874L17.6648 50.7815L22.2573 52.5641L23.4264 53.0178C23.7503 53.1435 23.8907 52.6219 23.5698 52.4974Z" fill="#1A2B3B"/>
<path d="M13.5917 34.1569C13.0402 34.1569 12.501 33.9934 12.0425 33.687C11.5839 33.3806 11.2265 32.9451 11.0155 32.4356C10.8044 31.9261 10.7492 31.3654 10.8568 30.8245C10.9644 30.2836 11.23 29.7868 11.6199 29.3968C12.0099 29.0068 12.5068 28.7413 13.0477 28.6337C13.5886 28.5261 14.1492 28.5813 14.6587 28.7923C15.1683 29.0034 15.6038 29.3608 15.9102 29.8193C16.2166 30.2779 16.3801 30.817 16.3801 31.3685C16.3793 32.1078 16.0852 32.8166 15.5625 33.3393C15.0397 33.8621 14.3309 34.1561 13.5917 34.1569ZM13.5917 29.1198C13.1469 29.1198 12.7121 29.2517 12.3423 29.4988C11.9725 29.7459 11.6843 30.0971 11.5141 30.508C11.3439 30.9189 11.2994 31.371 11.3861 31.8072C11.4729 32.2434 11.6871 32.6441 12.0016 32.9586C12.3161 33.2731 12.7167 33.4873 13.153 33.574C13.5892 33.6608 14.0413 33.6163 14.4522 33.4461C14.8631 33.2759 15.2143 32.9877 15.4614 32.6178C15.7085 32.248 15.8404 31.8133 15.8404 31.3685C15.8397 30.7723 15.6026 30.2007 15.181 29.7792C14.7594 29.3576 14.1879 29.1204 13.5917 29.1198V29.1198Z" fill="#1A2B3B"/>
<path d="M60.2044 51.4371L54.1689 46.821L49.5529 52.8565L55.5883 57.4725L60.2044 51.4371Z" fill="#F0F0F0"/>
<path d="M26.0946 10.2304C27.0482 10.2296 27.9887 10.4522 28.8409 10.8803C29.693 11.3083 30.4331 11.9299 31.0018 12.6954L34.526 8.08752L23.9517 0L15.8643 10.5743L20.4217 14.06C20.8778 12.9289 21.6616 11.9599 22.6724 11.2775C23.6833 10.5951 24.875 10.2305 26.0946 10.2304V10.2304Z" fill="#F0F0F0"/>
<path d="M127.505 99.9999H0.495817C0.448105 99.9999 0.402347 99.981 0.368609 99.9472C0.334871 99.9135 0.315918 99.8677 0.315918 99.82C0.315918 99.7723 0.334871 99.7266 0.368609 99.6928C0.402347 99.6591 0.448105 99.6401 0.495817 99.6401H127.505C127.552 99.6401 127.598 99.6591 127.632 99.6928C127.665 99.7266 127.684 99.7723 127.684 99.82C127.684 99.8677 127.665 99.9135 127.632 99.9472C127.598 99.981 127.552 99.9999 127.505 99.9999Z" fill="#3F3D56"/>
<path d="M96.5057 70.1492H83.5778C83.1008 70.1487 82.6436 69.9589 82.3063 69.6217C81.969 69.2844 81.7793 68.8272 81.7788 68.3502V67.4548C81.7793 66.9778 81.969 66.5205 82.3063 66.1833C82.6436 65.846 83.1008 65.6563 83.5778 65.6558H96.5057C96.9827 65.6563 97.4399 65.846 97.7772 66.1833C98.1145 66.5205 98.3042 66.9778 98.3047 67.4548V68.3502C98.3042 68.8272 98.1145 69.2844 97.7772 69.6217C97.4399 69.9589 96.9827 70.1487 96.5057 70.1492V70.1492Z" fill="#76CDD8"/>
<path d="M97.8677 68.4231H84.9397C84.4389 68.4225 83.9588 68.2233 83.6047 67.8692C83.2505 67.5151 83.0514 67.035 83.0508 66.5341V65.6387C83.0514 65.1379 83.2505 64.6578 83.6047 64.3036C83.9588 63.9495 84.4389 63.7503 84.9397 63.7498H97.8677C98.3685 63.7503 98.8486 63.9495 99.2027 64.3036C99.5568 64.6578 99.756 65.1379 99.7566 65.6387V66.5341C99.756 67.035 99.5568 67.5151 99.2027 67.8692C98.8486 68.2233 98.3685 68.4225 97.8677 68.4231V68.4231ZM84.9397 64.1096C84.5343 64.11 84.1456 64.2713 83.859 64.5579C83.5723 64.8446 83.411 65.2333 83.4106 65.6387V66.5341C83.411 66.9396 83.5723 67.3282 83.859 67.6149C84.1456 67.9016 84.5343 68.0628 84.9397 68.0633H97.8677C98.2731 68.0628 98.6618 67.9016 98.9484 67.6149C99.2351 67.3282 99.3964 66.9396 99.3968 66.5341V65.6387C99.3964 65.2333 99.2351 64.8446 98.9484 64.5579C98.6618 64.2713 98.2731 64.11 97.8677 64.1096H84.9397Z" fill="#3F3D56"/>
</g>
<defs>
<clipPath id="clip0_188_1585">
<rect width="127.368" height="100" fill="white" transform="translate(0.315918)"/>
</clipPath>
</defs>
</svg>
