<svg width="226" height="100" viewBox="0 0 226 100" fill="none" xmlns="http://www.w3.org/2000/svg">
<g clip-path="url(#clip0_183_1852)">
<path d="M96.2699 63.8864H5.02338C3.79331 63.8851 2.61401 63.3958 1.74422 62.526C0.874426 61.6562 0.38517 60.4769 0.383789 59.2469V3.53321C0.384826 2.59648 0.757389 1.69842 1.41974 1.03604C2.0821 0.373665 2.98015 0.00106938 3.91687 0H97.3239C98.2746 0.00107071 99.186 0.379187 99.8582 1.05139C100.53 1.72359 100.908 2.63499 100.909 3.58562V59.2469C100.908 60.4769 100.419 61.6562 99.5491 62.526C98.6793 63.3958 97.5 63.8851 96.2699 63.8864V63.8864Z" fill="white"/>
<path d="M96.2699 63.8864H5.02338C3.79331 63.8851 2.61401 63.3958 1.74422 62.526C0.874426 61.6562 0.38517 60.4769 0.383789 59.2469V3.53321C0.384826 2.59648 0.757389 1.69842 1.41974 1.03604C2.0821 0.373665 2.98015 0.00106938 3.91687 0H97.3239C98.2746 0.00107071 99.186 0.379187 99.8582 1.05139C100.53 1.72359 100.908 2.63499 100.909 3.58562V59.2469C100.908 60.4769 100.419 61.6562 99.5491 62.526C98.6793 63.3958 97.5 63.8851 96.2699 63.8864V63.8864ZM3.91687 1.00315C3.24611 1.00394 2.60305 1.27076 2.12877 1.74507C1.65448 2.21938 1.3877 2.86245 1.38694 3.53321V59.2469C1.38804 60.211 1.77152 61.1353 2.45324 61.817C3.13497 62.4987 4.05927 62.8822 5.02338 62.8833H96.2699C97.234 62.8822 98.1583 62.4987 98.84 61.817C99.5218 61.1353 99.9052 60.211 99.9063 59.2469V3.58562C99.9056 2.90095 99.6333 2.24453 99.1492 1.76039C98.665 1.27625 98.0086 1.00392 97.3239 1.00315H3.91687Z" fill="#E6E6E6"/>
<path d="M42.0426 49.7806H14.7016C14.0327 49.7796 13.3868 49.536 12.8839 49.095C12.3809 48.6539 12.0551 48.0454 11.9667 47.3823C11.9501 47.263 11.9422 47.1425 11.9429 47.022V16.8646C11.9437 16.1332 12.2347 15.432 12.7518 14.9149C13.269 14.3977 13.9702 14.1068 14.7016 14.106H42.0426C42.774 14.1068 43.4752 14.3977 43.9923 14.9149C44.5095 15.432 44.8004 16.1332 44.8012 16.8646V47.022C44.8004 47.7534 44.5095 48.4546 43.9923 48.9717C43.4752 49.4889 42.774 49.7798 42.0426 49.7806V49.7806ZM14.7016 15.6107C14.3691 15.6111 14.0504 15.7433 13.8153 15.9784C13.5803 16.2135 13.448 16.5322 13.4477 16.8646V47.022C13.4471 47.0735 13.4503 47.125 13.4572 47.1761C13.4956 47.4793 13.6431 47.7582 13.8721 47.9606C14.1011 48.163 14.396 48.2751 14.7016 48.2759H42.0426C42.375 48.2755 42.6937 48.1433 42.9288 47.9082C43.1639 47.6731 43.2961 47.3544 43.2965 47.022V16.8646C43.2961 16.5322 43.1639 16.2135 42.9288 15.9784C42.6937 15.7433 42.375 15.6111 42.0426 15.6107H14.7016Z" fill="#E6E6E6"/>
<path d="M87.3438 39.9748H54.2397C53.7076 39.9748 53.1973 39.7634 52.821 39.3871C52.4448 39.0109 52.2334 38.5006 52.2334 37.9685C52.2334 37.4364 52.4448 36.926 52.821 36.5498C53.1973 36.1735 53.7076 35.9622 54.2397 35.9622H87.3438C87.8759 35.9622 88.3862 36.1735 88.7625 36.5498C89.1387 36.926 89.3501 37.4364 89.3501 37.9685C89.3501 38.5006 89.1387 39.0109 88.7625 39.3871C88.3862 39.7634 87.8759 39.9748 87.3438 39.9748Z" fill="#E6E6E6"/>
<path d="M72.2965 31.4479H54.2397C53.7076 31.4479 53.1973 31.2365 52.821 30.8603C52.4448 30.484 52.2334 29.9737 52.2334 29.4416C52.2334 28.9095 52.4448 28.3992 52.821 28.0229C53.1973 27.6467 53.7076 27.4353 54.2397 27.4353H72.2965C72.8286 27.4353 73.3389 27.6467 73.7152 28.0229C74.0914 28.3992 74.3028 28.9095 74.3028 29.4416C74.3028 29.9737 74.0914 30.484 73.7152 30.8603C73.3389 31.2365 72.8286 31.4479 72.2965 31.4479Z" fill="#E6E6E6"/>
<path d="M37.3872 31.1143C37.3872 35.5465 33.2889 34.8762 28.2334 34.8762C23.1779 34.8762 19.0796 35.5465 19.0796 31.1143C19.0796 26.6821 21.0815 18.8257 28.2334 18.8257C35.6316 18.8257 37.3872 26.6821 37.3872 31.1143Z" fill="#2F2E41"/>
<path d="M37.7574 38.5738C37.5808 38.0642 37.2288 37.634 36.7643 37.36C36.6746 37.3049 36.5807 37.2571 36.4834 37.217C36.076 37.0476 35.628 37.0006 35.1943 37.0816C34.7606 37.1627 34.3599 37.3684 34.0412 37.6735C33.7225 37.9787 33.4996 38.37 33.3997 38.7998C33.2999 39.2296 33.3274 39.6792 33.4789 40.0936L37.1254 48.3821H41.928L37.7574 38.5738Z" fill="#3F3D56"/>
<path d="M21.8449 39.0253C21.5566 38.886 21.2422 38.8092 20.9223 38.8C20.6023 38.7908 20.284 38.8493 19.9882 38.9717C19.6924 39.0942 19.4259 39.2777 19.206 39.5104C18.9862 39.7431 18.818 40.0196 18.7126 40.3219L15.3169 48.3095C15.4908 48.358 15.6705 48.3825 15.851 48.3822H20.112L22.9909 41.8416C23.183 41.3136 23.172 40.7331 22.9603 40.2127C22.7485 39.6924 22.351 39.2692 21.8449 39.0253V39.0253Z" fill="#3F3D56"/>
<path d="M28.2026 34.8688C31.6045 34.8688 34.3622 32.1111 34.3622 28.7092C34.3622 25.3073 31.6045 22.5496 28.2026 22.5496C24.8007 22.5496 22.043 25.3073 22.043 28.7092C22.043 32.1111 24.8007 34.8688 28.2026 34.8688Z" fill="#FFB8B8"/>
<path d="M36.8719 37.4578C36.8368 37.4252 36.8017 37.39 36.7641 37.36C36.3347 36.9728 35.8265 36.6833 35.2745 36.5115C34.7225 36.3396 34.1398 36.2894 33.5665 36.3643L22.2158 37.8013C21.176 37.9299 20.2272 38.4586 19.5708 39.2752C18.9144 40.0918 18.6019 41.132 18.6997 42.1751C18.8553 43.9256 19.106 46.135 19.5073 48.3821H37.4387L38.0983 40.718C38.1513 40.1174 38.0687 39.5125 37.8564 38.9482C37.6441 38.3839 37.3076 37.8745 36.8719 37.4578V37.4578Z" fill="#3F3D56"/>
<path d="M21.0859 28.105H23.5222L24.597 25.0955L24.8119 28.105H25.9763L26.6033 26.3495L26.7287 28.105H35.3809C35.3809 26.3756 34.6939 24.7171 33.4711 23.4943C32.2482 22.2715 30.5897 21.5845 28.8604 21.5845H27.6064C25.8771 21.5845 24.2186 22.2715 22.9957 23.4943C21.7729 24.7171 21.0859 26.3756 21.0859 28.105V28.105Z" fill="#2F2E41"/>
<path d="M125.091 59.2469V3.58562C125.092 2.63499 125.47 1.72359 126.142 1.05139C126.814 0.379187 127.726 0.00107071 128.676 0H222.083C223.02 0.00106938 223.918 0.373665 224.581 1.03604C225.243 1.69842 225.615 2.59648 225.617 3.53321V59.2469C225.615 60.4769 225.126 61.6562 224.256 62.526C223.386 63.3958 222.207 63.8851 220.977 63.8864H129.73C128.5 63.8851 127.321 63.3958 126.451 62.526C125.581 61.6562 125.092 60.4769 125.091 59.2469V59.2469Z" fill="white"/>
<path d="M125.091 59.2469V3.58562C125.092 2.63499 125.47 1.72359 126.142 1.05139C126.814 0.379187 127.726 0.00107071 128.676 0H222.083C223.02 0.00106938 223.918 0.373665 224.581 1.03604C225.243 1.69842 225.615 2.59648 225.617 3.53321V59.2469C225.615 60.4769 225.126 61.6562 224.256 62.526C223.386 63.3958 222.207 63.8851 220.977 63.8864H129.73C128.5 63.8851 127.321 63.3958 126.451 62.526C125.581 61.6562 125.092 60.4769 125.091 59.2469V59.2469ZM128.676 1.00315C127.992 1.00392 127.335 1.27625 126.851 1.76039C126.367 2.24453 126.095 2.90095 126.094 3.58562V59.2469C126.095 60.211 126.479 61.1353 127.16 61.817C127.842 62.4987 128.766 62.8822 129.73 62.8833H220.977C221.941 62.8822 222.865 62.4987 223.547 61.817C224.229 61.1353 224.612 60.211 224.613 59.2469V3.53321C224.613 2.86245 224.346 2.21938 223.872 1.74507C223.397 1.27076 222.754 1.00394 222.083 1.00315H128.676Z" fill="#E6E6E6"/>
<path d="M181.199 47.022V16.8646C181.2 16.1332 181.491 15.432 182.008 14.9149C182.525 14.3977 183.227 14.1068 183.958 14.106H211.299C212.03 14.1068 212.731 14.3977 213.249 14.9149C213.766 15.432 214.057 16.1332 214.058 16.8646V47.022C214.058 47.1425 214.05 47.263 214.034 47.3823C213.945 48.0454 213.62 48.6539 213.117 49.095C212.614 49.536 211.968 49.7796 211.299 49.7806H183.958C183.227 49.7798 182.525 49.4889 182.008 48.9717C181.491 48.4546 181.2 47.7534 181.199 47.022V47.022ZM183.958 15.6107C183.625 15.6111 183.307 15.7433 183.072 15.9784C182.837 16.2135 182.704 16.5322 182.704 16.8646V47.022C182.704 47.3544 182.837 47.6731 183.072 47.9082C183.307 48.1433 183.625 48.2755 183.958 48.2759H211.299C211.605 48.2751 211.899 48.163 212.128 47.9606C212.357 47.7582 212.505 47.4793 212.543 47.1761C212.55 47.125 212.553 47.0735 212.553 47.022V16.8646C212.552 16.5322 212.42 16.2135 212.185 15.9784C211.95 15.7433 211.631 15.6111 211.299 15.6107H183.958Z" fill="#E6E6E6"/>
<path d="M136.65 37.9685C136.651 37.4365 136.862 36.9266 137.238 36.5505C137.614 36.1743 138.124 35.9628 138.656 35.9622H171.76C172.292 35.9622 172.803 36.1735 173.179 36.5498C173.555 36.926 173.767 37.4364 173.767 37.9685C173.767 38.5006 173.555 39.0109 173.179 39.3871C172.803 39.7634 172.292 39.9748 171.76 39.9748H138.656C138.124 39.9742 137.614 39.7626 137.238 39.3865C136.862 39.0103 136.651 38.5004 136.65 37.9685V37.9685Z" fill="#E6E6E6"/>
<path d="M136.65 29.4416C136.651 28.9097 136.862 28.3997 137.238 28.0236C137.614 27.6475 138.124 27.4359 138.656 27.4353H156.713C157.245 27.4353 157.755 27.6467 158.132 28.0229C158.508 28.3992 158.719 28.9095 158.719 29.4416C158.719 29.9737 158.508 30.484 158.132 30.8603C157.755 31.2365 157.245 31.4479 156.713 31.4479H138.656C138.124 31.4473 137.614 31.2357 137.238 30.8596C136.862 30.4835 136.651 29.9735 136.65 29.4416Z" fill="#E6E6E6"/>
<path d="M190.871 25.8251C192.63 29.2818 194.015 32.8472 197.894 32.8472C199.756 32.8472 201.542 32.1073 202.859 30.7904C204.176 29.4736 204.916 27.6875 204.916 25.8251C204.916 23.9627 204.176 22.1766 202.859 20.8597C201.542 19.5428 199.756 18.803 197.894 18.803C193.952 18.7536 187.599 19.391 190.871 25.8251Z" fill="#2F2E41"/>
<path d="M197.548 32.984C200.95 32.984 203.707 30.2263 203.707 26.8244C203.707 23.4226 200.95 20.6648 197.548 20.6648C194.146 20.6648 191.388 23.4226 191.388 26.8244C191.388 30.2263 194.146 32.984 197.548 32.984Z" fill="#A0616A"/>
<path d="M205.958 38.0522C205.56 37.6196 205.128 37.2204 204.666 36.8585C202.644 35.2738 200.11 34.4883 197.546 34.6515C197.443 34.6565 197.34 34.6641 197.238 34.6741C195.753 34.7928 194.31 35.2263 193.006 35.9459C191.702 36.6654 190.566 37.6545 189.674 38.8472C188.768 40.0582 188.131 41.4487 187.806 42.9257C187.48 44.4027 187.474 45.9321 187.788 47.4117C187.856 47.7251 187.916 48.0411 187.973 48.3571H208.393L208.628 46.7772C208.864 45.2157 208.747 43.6212 208.284 42.1112C207.822 40.6012 207.027 39.2142 205.958 38.0522V38.0522Z" fill="#3F3D56"/>
<path d="M209.085 39.6998C208.941 38.8757 208.512 38.1282 207.874 37.5874C207.236 37.0467 206.428 36.747 205.591 36.7405C205.559 36.7405 205.524 36.743 205.491 36.743C205.212 36.7494 204.936 36.7881 204.666 36.8583C204.213 36.9788 203.788 37.1876 203.415 37.4727C203.043 37.7578 202.731 38.1137 202.496 38.5198C202.262 38.926 202.11 39.3745 202.049 39.8395C201.989 40.3045 202.021 40.7769 202.143 41.2296L204.072 48.357H210.562L209.085 39.6998Z" fill="#3F3D56"/>
<path d="M194.802 37.8315C194.557 37.351 194.207 36.9325 193.776 36.6076C193.472 36.3776 193.131 36.1996 192.768 36.081C192.62 36.0303 192.468 35.9901 192.314 35.9606C191.476 35.8019 190.608 35.9482 189.867 36.3731C189.127 36.798 188.563 37.4736 188.277 38.2779L184.746 48.3571H191.447L194.865 40.9438C195.093 40.4547 195.205 39.9198 195.195 39.3804C195.184 38.8409 195.049 38.311 194.802 37.8315V37.8315Z" fill="#3F3D56"/>
<path d="M191.012 23.3434C192.419 24.3135 194.09 24.8298 195.799 24.823C195.19 25.2458 194.495 25.5314 193.765 25.6601C196.038 26.1477 198.387 26.1609 200.665 25.6989C201.171 25.6177 201.66 25.4499 202.109 25.2028C202.333 25.0777 202.528 24.9069 202.682 24.7014C202.836 24.496 202.944 24.2605 203.001 24.0103C203.152 23.1455 202.478 22.3598 201.778 21.8302C200.706 21.0318 199.47 20.4818 198.159 20.2198C196.848 19.9578 195.495 19.9905 194.198 20.3155C193.351 20.5344 192.503 20.9042 191.953 21.5842C191.403 22.2642 191.24 23.3125 191.764 24.0127L191.012 23.3434Z" fill="#2F2E41"/>
<path d="M158.623 100H67.3769C66.1468 99.9986 64.9675 99.5093 64.0977 98.6395C63.2279 97.7697 62.7387 96.5905 62.7373 95.3604V39.6467C62.7383 38.71 63.1109 37.8119 63.7733 37.1496C64.4356 36.4872 65.3337 36.1146 66.2704 36.1135H159.677C160.628 36.1146 161.539 36.4927 162.212 37.1649C162.884 37.8371 163.262 38.7485 163.263 39.6991V95.3604C163.262 96.5905 162.772 97.7697 161.903 98.6395C161.033 99.5093 159.853 99.9986 158.623 100V100Z" fill="white"/>
<path d="M158.623 100H67.3769C66.1468 99.9986 64.9675 99.5093 64.0977 98.6395C63.2279 97.7697 62.7387 96.5905 62.7373 95.3604V39.6467C62.7383 38.71 63.1109 37.8119 63.7733 37.1496C64.4356 36.4872 65.3337 36.1146 66.2704 36.1135H159.677C160.628 36.1146 161.539 36.4927 162.212 37.1649C162.884 37.8371 163.262 38.7485 163.263 39.6991V95.3604C163.262 96.5905 162.772 97.7697 161.903 98.6395C161.033 99.5093 159.853 99.9986 158.623 100V100ZM66.2704 37.1167C65.5996 37.1175 64.9566 37.3843 64.4823 37.8586C64.008 38.3329 63.7412 38.976 63.7405 39.6467V95.3604C63.7416 96.3245 64.125 97.2488 64.8068 97.9305C65.4885 98.6122 66.4128 98.9957 67.3769 98.9968H158.623C159.588 98.9957 160.512 98.6122 161.194 97.9305C161.875 97.2488 162.259 96.3245 162.26 95.3604V39.6991C162.259 39.0145 161.987 38.3581 161.503 37.8739C161.019 37.3898 160.362 37.1174 159.677 37.1167H66.2704Z" fill="#3F3D56"/>
<path d="M104.396 85.8942H77.0551C76.3862 85.8932 75.7403 85.6496 75.2374 85.2085C74.7345 84.7675 74.4086 84.1589 74.3203 83.4959C74.3036 83.3765 74.2957 83.256 74.2964 83.1355V52.9782C74.2973 52.2468 74.5882 51.5456 75.1053 51.0284C75.6225 50.5112 76.3237 50.2203 77.0551 50.2195H104.396C105.127 50.2203 105.829 50.5112 106.346 51.0284C106.863 51.5456 107.154 52.2468 107.155 52.9782V83.1355C107.154 83.8669 106.863 84.5681 106.346 85.0853C105.829 85.6024 105.127 85.8933 104.396 85.8942V85.8942ZM77.0551 51.7242C76.7227 51.7246 76.4039 51.8568 76.1689 52.0919C75.9338 52.327 75.8015 52.6457 75.8012 52.9782V83.1355C75.8006 83.187 75.8038 83.2386 75.8107 83.2897C75.8491 83.5929 75.9966 83.8717 76.2256 84.0741C76.4546 84.2765 76.7495 84.3886 77.0551 84.3894H104.396C104.729 84.3891 105.047 84.2568 105.282 84.0217C105.517 83.7867 105.65 83.4679 105.65 83.1355V52.9782C105.65 52.6457 105.517 52.327 105.282 52.0919C105.047 51.8568 104.729 51.7246 104.396 51.7242H77.0551Z" fill="#E6E6E6"/>
<path d="M90.3289 55.7328C88.549 54.9048 86.3638 54.6334 84.5527 55.4028C82.7417 56.1722 81.507 58.1443 82.0926 59.8896C82.3581 60.6809 82.9629 61.4591 82.7273 62.2583C82.5459 62.8734 81.9133 63.2796 81.2921 63.5683C80.6709 63.8571 79.9913 64.0999 79.542 64.5869C79.0927 65.074 78.999 65.9124 79.5603 66.2901C79.7452 66.4146 79.9763 66.4736 80.1556 66.6047C80.3084 66.7289 80.4187 66.8976 80.471 67.0874C80.5233 67.2772 80.5152 67.4786 80.4476 67.6636C80.2981 68.0357 80.0512 68.3606 79.7326 68.6042C79.0955 69.1537 78.2534 69.7825 78.4513 70.5625C78.5247 70.771 78.6473 70.9587 78.8087 71.1097C78.9701 71.2606 79.1655 71.3704 79.3784 71.4297C79.8206 71.5573 80.2793 71.6178 80.7394 71.6094L99.5401 72.2016C100.161 72.2482 100.785 72.2134 101.396 72.098C101.694 72.0437 101.977 71.9288 102.227 71.7602C102.478 71.5917 102.692 71.3733 102.854 71.1186C103.214 70.4522 102.978 69.6313 102.533 69.009C102.089 68.3867 101.459 67.8959 100.939 67.3244C100.419 66.753 99.9941 66.0397 100.086 65.3012C100.159 64.71 100.549 64.1991 100.829 63.6619C101.109 63.1247 101.271 62.4535 100.909 61.9593C100.398 61.263 99.1716 61.326 98.5908 60.6771C98.1525 60.1874 98.2371 59.4825 98.1936 58.851C98.0887 57.3321 97.0371 55.8976 95.5402 55.2315C94.779 54.9047 93.951 54.7636 93.1245 54.8199C92.298 54.8762 91.4968 55.1282 90.7869 55.5552L90.3289 55.7328Z" fill="#2F2E41"/>
<path d="M91.0244 72.0558C94.4262 72.0558 97.184 69.2981 97.184 65.8962C97.184 62.4943 94.4262 59.7366 91.0244 59.7366C87.6225 59.7366 84.8647 62.4943 84.8647 65.8962C84.8647 69.2981 87.6225 72.0558 91.0244 72.0558Z" fill="#A0616A"/>
<path d="M99.1115 80.0105C99.1053 78.9309 98.8063 77.8731 98.2463 76.95C97.6862 76.027 96.8862 75.2732 95.9314 74.769C95.8538 74.7264 95.7735 74.6888 95.6933 74.6511C95.0001 74.3226 94.2497 74.1318 93.4838 74.0894L87.6204 73.7608C86.7923 73.7136 85.9635 73.8409 85.1877 74.1345C84.9988 74.2049 84.8138 74.2853 84.6335 74.3753C84.0668 74.6545 83.5485 75.0228 83.0986 75.4662C82.506 76.0512 82.0424 76.7537 81.7375 77.5285C81.4325 78.3034 81.2931 79.1334 81.328 79.9654L81.4334 82.4507L82.1708 84.3642H98.5647C98.7681 84.1178 98.9446 83.8505 99.0914 83.5667C99.3693 83.0158 99.5158 82.408 99.5193 81.7909C99.5228 81.1739 99.3832 80.5645 99.1115 80.0105V80.0105Z" fill="#3F3D56"/>
<path d="M98.7103 76.7152C98.4428 76.1348 98.0234 75.6374 97.4965 75.2757C97.1162 75.0152 96.6898 74.8296 96.24 74.729C96.06 74.6894 95.8772 74.6634 95.6933 74.6512C95.3312 74.6266 94.9675 74.6579 94.6149 74.744C94.0885 74.875 93.5987 75.1239 93.1826 75.4719C92.7665 75.8199 92.4349 76.2579 92.2129 76.7529C91.9909 77.2478 91.8843 77.7868 91.9011 78.329C91.918 78.8712 92.0578 79.4025 92.3101 79.8827L94.5648 84.1511L94.6776 84.3643H102.249L98.7103 76.7152Z" fill="#3F3D56"/>
<path d="M86.3186 74.4908C85.9639 74.3104 85.5817 74.19 85.1876 74.1347C84.8943 74.0929 84.5968 74.0887 84.3024 74.1222C83.5532 74.207 82.8499 74.5265 82.2932 75.035C81.7364 75.5435 81.3547 76.215 81.2026 76.9536L79.6753 84.3644H85.649L86.7651 83.9079L88.1545 78.5762C88.3566 77.788 88.285 76.9545 87.9515 76.2122C87.6179 75.47 87.0422 74.8631 86.3186 74.4908Z" fill="#3F3D56"/>
<path d="M84.7227 65.0206C86.6679 64.8644 88.2829 62.9212 88.0807 60.9802C88.0579 61.7802 88.3299 62.5607 88.8451 63.1732C89.3603 63.7857 90.0827 64.1875 90.8748 64.3021C91.767 64.4004 92.7452 64.1304 93.5219 64.5806C94.3821 65.0791 94.6574 66.2899 95.5535 66.7205C96.4194 67.1366 97.5191 66.5691 97.9469 65.709C98.3747 64.8489 98.2697 63.8155 97.9862 62.8976C97.5819 61.5887 96.8457 60.4067 95.8493 59.4665C94.8528 58.5264 93.63 57.8601 92.2998 57.5325C90.9696 57.2049 89.5772 57.2272 88.2581 57.5971C86.939 57.9671 85.7382 58.6721 84.7723 59.6436C83.9543 60.4663 83.3049 61.5149 83.1996 62.6702C83.0942 63.8255 83.6302 65.0791 84.6677 65.5981L84.7227 65.0206Z" fill="#2F2E41"/>
<path d="M149.697 76.0883H116.593C116.061 76.0883 115.551 75.8769 115.175 75.5007C114.798 75.1244 114.587 74.6141 114.587 74.082C114.587 73.5499 114.798 73.0396 115.175 72.6633C115.551 72.2871 116.061 72.0757 116.593 72.0757H149.697C150.229 72.0757 150.74 72.2871 151.116 72.6633C151.492 73.0396 151.704 73.5499 151.704 74.082C151.704 74.6141 151.492 75.1244 151.116 75.5007C150.74 75.8769 150.229 76.0883 149.697 76.0883Z" fill="#E6E6E6"/>
<path d="M134.65 67.5614H116.593C116.061 67.5614 115.551 67.3501 115.175 66.9738C114.798 66.5975 114.587 66.0872 114.587 65.5551C114.587 65.023 114.798 64.5127 115.175 64.1365C115.551 63.7602 116.061 63.5488 116.593 63.5488H134.65C135.182 63.5488 135.692 63.7602 136.069 64.1365C136.445 64.5127 136.656 65.023 136.656 65.5551C136.656 66.0872 136.445 66.5975 136.069 66.9738C135.692 67.3501 135.182 67.5614 134.65 67.5614Z" fill="#76CDD8"/>
<path d="M144.339 82.2134C142.587 82.2166 140.907 82.915 139.669 84.1552C138.431 85.3955 137.736 87.0763 137.736 88.8286C137.736 90.581 138.431 92.2618 139.669 93.502C140.907 94.7423 142.587 95.4407 144.339 95.444H144.339C146.091 95.4407 147.771 94.7423 149.009 93.5021C150.247 92.2618 150.942 90.581 150.942 88.8287C150.942 87.0763 150.247 85.3955 149.009 84.1553C147.771 82.915 146.091 82.2166 144.339 82.2134V82.2134Z" fill="#76CDD8"/>
<path d="M143.711 91.5763C143.537 91.5766 143.367 91.5202 143.228 91.4158L143.219 91.4093L141.4 90.0176C141.23 89.8871 141.119 89.6944 141.091 89.482C141.063 89.2696 141.121 89.0549 141.251 88.8849C141.382 88.7148 141.574 88.6035 141.786 88.5753C141.999 88.5471 142.214 88.6044 142.384 88.7345L143.562 89.6381L146.347 86.0054C146.411 85.9212 146.492 85.8505 146.584 85.7974C146.676 85.7443 146.777 85.7098 146.882 85.6959C146.987 85.682 147.094 85.689 147.197 85.7164C147.299 85.7438 147.396 85.7912 147.48 85.8558L147.48 85.8559L147.463 85.8799L147.48 85.8559C147.65 85.9865 147.761 86.1792 147.79 86.3916C147.818 86.6041 147.76 86.819 147.63 86.9892L144.355 91.26C144.279 91.3585 144.182 91.4381 144.07 91.4928C143.959 91.5474 143.836 91.5757 143.712 91.5753L143.711 91.5763Z" fill="white"/>
</g>
<defs>
<clipPath id="clip0_183_1852">
<rect width="225.233" height="100" fill="white" transform="translate(0.383789)"/>
</clipPath>
</defs>
</svg>
